<?xml version="1.0" encoding="utf-8"?>
<!-- Generator: Adobe Illustrator 25.2.0, SVG Export Plug-In . SVG Version: 6.00 Build 0)  -->
<svg version="1.1" id="Layer_1" xmlns="http://www.w3.org/2000/svg" xmlns:xlink="http://www.w3.org/1999/xlink" x="0px" y="0px"
	 viewBox="0 0 506.1 800" style="enable-background:new 0 0 506.1 800;" xml:space="preserve">
<style type="text/css">
	.st0{fill:#F7F1E9;}
</style>
<g>
	<path class="st0" d="M209.8,361.1c0,0-3.1-46,8.3-66.6c11.3-20.7-14.2-17.9-15.4-18c-1.2-0.1-32.6-8.8-25.4,10.3
		c7.2,19.1,8.6,222,5.9,230.9c-2.7,9-10,38.1,14.1,35.1c27.2-3.3,29.7-1.4,21.4-28.2C208.8,493,211.2,380,209.8,361.1z"/>
	<path class="st0" d="M230.5,800h-35c5.7-38.5-2.2-139.6-1.9-157.6c0,0,0.4-46.1-12.1-65.8c-12.5-19.7,13.1-19,14.4-19.2
		c1.2-0.2,37.9-8.3,25.9,8.3c-11.6,16.1,4.3,222.1,7.5,230.9C229.6,797.5,230,798.7,230.5,800z"/>
	<path class="st0" d="M182.3,3.8c-0.5-1.4-0.8-2.7-0.9-3.8l43.5,0c1.7,2.8,1.7,6.9-2.1,13.2c-11.9,20.2-10.1,66.2-10.1,66.2
		c0.9,19-4.6,131.8,4.3,163.8c7.6,27.2,5.1,25.1-22.2,27.3c-24.1,1.9-16.1-26.8-13.1-35.7C184.8,226,189,23.2,182.3,3.8z"/>
	<path class="st0" d="M436.6,448.4c0,0,0.1-13.4,8.4-20.9c8.3-7.5-2.9-14.4-14.3-13.8c-11.4,0.6-27.4-7.3-21.3,8.6
		c6.2,16.1-2.1,120.9-4.9,140.1c-1.4,10-2.6,23.7-3.4,27.5c0,0-1,11.5-5,19.2c-4,7.6,4.9,14.8,18.7,12.3
		c12.9-2.3,23.6,12.3,18.1-12.6c-5.5-24.9-5.2-35.2-5.2-35.2L436.6,448.4z"/>
	<path class="st0" d="M432.9,642.6c-8.7,7-9.7,20.3-9.7,20.3l-16.1,124.4c0,0-0.3,3.9,0.3,12.6h-27.4c1.1-5.4,2.8-16.6,4.6-25.1
		c3.9-19,19.7-123.6,13.1-139.5c-6.3-15.4,10.3-7.4,21.7-7.3C430.8,628.1,441.6,635.7,432.9,642.6z"/>
	<path class="st0" d="M439.2,160.9c1-3.7,2.9-17.4,4.9-27.3c3.5-17.4,12.2-105.8,12.4-133.6l36.1,0c-0.3,0.3-0.7,0.7-1.1,1
		c-8.7,7-9.5,20.4-9.5,20.4l-11.6,94.3c0,0-5,39.4-0.4,65.7c4.4,25.1-5.8,10-18.8,11.6c-13.9,1.8-22.5-5.8-18-13.2
		C437.6,172.4,439.2,160.9,439.2,160.9z"/>
	<path class="st0" d="M281.1,666.5l-5.4,121.4c0,0,0,4.6,0.6,12.1h-25.7c0.3-4,0.7-8.1,1.1-11.7c2.3-20.4,8.4-131.6,1.7-148.3
		c-6.3-15.8,9.7-8.8,21.1-9.8c11.4-1.1,22.7,5.8,14.6,14C280.9,652.3,281.1,666.5,281.1,666.5z"/>
	<path class="st0" d="M270.5,454.8c0,0,0.3-29.5-7.3-38.2c-7.5-8.7,4.3-14.9,15.6-13.1c11.3,1.8,24.5-6.6,20.3,11.1
		c-4.2,17.7-9.6,127.7-8.7,148.2c0.5,10.7,0.3,25.3,0.8,29.3c0,0-0.1,12.3,3.2,20.7c3.3,8.5-6.3,15.1-19.8,11.1
		c-12.6-3.7-22.5,6-16.8-15.1c6.9-26,8.1-91.2,8.1-91.2L270.5,454.8z"/>
	<path class="st0" d="M283.1,212.4c0,0,1.5-14.1-5.9-23c-7.4-8.9,4.6-14.8,15.8-12.7c11.2,2.1,28.5-6.1,20.1,11.7
		c-7.8,16.3-12.4,127.4-11.9,147.9c0.2,10.7-0.3,25.3,0.1,29.4c0,0-0.4,12.3,2.7,20.8c3.1,8.5-6.6,14.9-20,10.6
		c-12.6-4.1-24.9,10-16.5-15.5c8.4-25.5,8.6-51.7,8.6-51.7L283.1,212.4z"/>
	<path class="st0" d="M283.9,61.5l1.9-61.1l1.2-0.1h24.8c-2,39.6-3.1,95.4-2.2,109.4c0.7,10.7,0.8,25.3,1.4,29.3
		c0,0,0.1,12.3,3.6,20.6c3.5,8.4-6,15.2-19.6,11.6c-12.7-3.5-21.6,5.2-17.2-14.7C283.5,131.7,283.9,61.5,283.9,61.5z"/>
	<path class="st0" d="M274.9,595.8c-27-4.3-32.8-7.2-32.8-7.2s7.2,11.1,38.5,24.4c20.3,8.7,25.3,6.2,26.4,3.5
		c6.7,18.1,19.9,51.5,19.9,51.5l22.9,52.5l1.8-1.9c0,0-15.8-32.5-28.7-66.3c-5-13.1-8.9-23.1-11.9-30.5c2.2,0.9,13.7,1.3,51.9-57.7
		l14.6-26.9l-27.6,22.4c0,0-39.9,39.7-41.3,56.4c-1.5-3.6-2.7-6.2-3.6-8c4-0.6,17.5-7.2,19.3-70.4c0,0-16.9,28.2-22.6,49.2
		c-5.9-13.2-18.5-34.4-44.4-68.6L231,488.7l15.9,44.1c0,0,21.1,44.6,39.3,65.6C283,597.4,279.2,596.5,274.9,595.8z M304.5,609.6
		c-0.3-0.3-0.5-0.6-0.8-0.9c0.1-0.1,0.3-0.1,0.4-0.2C304.2,608.8,304.3,609.2,304.5,609.6z"/>
	<path class="st0" d="M136.5,43.3c0,0,1.1,7.9-4.6,41.3c-1.7,9.7-1.7,17.5-0.9,23.7c-14.1-10.9-39.7-21-39.7-21S49.9,71.5,50.2,71.8
		c-1.3-0.6-13.4-6.2,29.9,23.9c36,25,51,28.6,56.2,28.9c1.9,3.1,3.6,4.5,3.6,4.5s0.3,0.2,0.8,0.5c0,0,0,0,0,0
		c-17.5-8-65.3-6.8-65.3-6.8l-35.1,4.4l29.5,8c57.8,11,72.4,6.7,76.1,3.8c0.2,0,0.4,0.1,0.5,0.1c3.6,6,8,13.3,13.5,22.1
		c19,30.7,35.2,62.8,35.2,62.8l2.7-0.3l-27.8-49.8c0,0-11.4-18.8-21.3-34.8c16.8-2.8,30.9-64.8,30.9-64.8
		c-14.8,16.4-23.8,28.8-29.1,38.1c0.1-3.9,0-8.6-0.5-14.3C146.6,56.2,136.5,43.3,136.5,43.3z"/>
	<path class="st0" d="M336.8,140.7c0,0,6.4,12.4,37.8,29.9c19.6,10.9,25.5,9.5,27.2,6.8c6.7,12.4,13.9,25.4,13.9,25.4l23.6,38.7
		l1.2-2.6c0,0-15.8-23.3-29.6-49c-3.2-5.9-6-11-8.3-15.3c0-0.5-0.1-0.8-0.1-0.8s-0.2-0.7-0.8-2c6.2-0.9,20.6-9.7,39.8-64.7
		c0,0-30.3,26.7-41.3,46.7c1.5-8.8,1.6-26-3.7-59.9c0,0-3.8-18.7-6.9-25.1c-3-6.1-7.2-23.4-7.2-23.4s-2.8,25.2-1.9,41.5
		c0.8,15.1,0.1,63.2,11.3,74.1c-4.7-3.4-11.5-6.7-21.1-9.3C342.5,144.3,336.8,140.7,336.8,140.7z"/>
	<path class="st0" d="M367.6,685.9l3.8,114.1h-23.8c0.5-24.7-2-122.5-9.7-137.2c-7.5-14.5,9-8.9,20.3-10.7
		c11.2-1.8,23.1,3.9,15.6,12.2C366.4,672.5,367.6,685.9,367.6,685.9z"/>
	<path class="st0" d="M344.7,504.4c0,0,0.3-42-4.9-53.6c-4.5-10.2,4.1-14.1,15.3-12.6c11.3,1.5,24.4-6.5,20.5,10.3
		c-3.9,16.8-7.5,120.7-6.3,140c0.6,10.1,0.7,23.9,1.2,27.7c0,0,0.1,11.6,3.5,19.5c3.4,7.9-6.1,14.3-19.6,10.8
		c-12.7-3.4-22.4,5.9-17.1-14c6.5-24.6,6.6-86.3,6.6-86.3L344.7,504.4z"/>
	<path class="st0" d="M366.2,257.7c0,0-0.9-13.4,6.8-21.5c7.7-8.1-4-14.1-15.3-12.6c-11.3,1.5-28.3-6.9-20.5,10.2
		c7.1,15.7,7.2,120.7,5.9,140c-0.7,10.1-0.8,23.9-1.3,27.7c0,0-0.1,11.6-3.6,19.5c-3.4,7.9,6,14.4,19.6,10.8
		c12.7-3.3,24.5,10.4,17.1-14c-7.4-24.4-6.5-49.1-6.5-49.1L366.2,257.7z"/>
	<path class="st0" d="M341.3,114.3l2.1-70.4c0,0,0.6-26.8-2.3-43.6h33.1c-0.8,5.6-1.6,12.1-1.8,19.5c-0.4,17.2-6.6,120.7-5.2,140
		c0.7,10.1,0.9,23.9,1.5,27.7c0,0,0.2,11.6,3.6,19.5c3.5,7.9-6,14.4-19.5,10.9c-12.7-3.3-21.6,4.9-17.2-13.9
		C341,180.6,341.3,114.3,341.3,114.3z"/>
	<path class="st0" d="M3.3,556.7c-0.6,0,57,27.7,57,27.7s77.8,36.1,85.5,14.7c14,20.7,55.4,77,55.4,77l2.1,0.1
		c-18.3-25.8-50.9-72.5-57.3-80.4c5.5-3.7,15.3-20.4,22.3-89.2c0,0,1.5-25.9-0.4-35.4c-1.8-9.1-1.4-33.3-1.4-33.3
		s-12.4,32.2-16.9,53.9c-3.1,14.8-13.3,52.6-14.2,79c-4.6-12.4-15.2-32.8-38.2-66.1c0,0-15.7-20.7-23.3-26.7
		c-7.2-5.7-22.7-24.5-22.7-24.5s11.5,32.5,22.1,52c8.1,14.7,27.8,56.7,45.7,75.5c-13.1-5-32.5-10.8-61.1-16.6
		C-16.6,548.8,1.3,556,3.3,556.7z"/>
	<path class="st0" d="M235.2,383.4c0,0,8.1-16.4,15.7-32.2c2,2.6,9,2.8,31.7-14.1c36.4-27.1,43.6-42.8,43.6-42.8s-6.6,5.5-39.2,20.4
		c-11.2,5.1-19,10.5-24.5,15.5c12.9-15.1,11.2-69.8,11.8-87.3c0.7-18.8-3.1-46.9-3.1-46.9s-4.6,20.8-7.9,28.4
		c-3.5,8-7.6,30.2-7.6,30.2c-5.5,39.9-5.1,59.6-3.1,69.3c-13.2-20.4-49.3-43.9-49.3-43.9c23.6,58.3,40.7,65.1,47.9,64.7
		c-0.7,1.6-0.9,2.5-0.9,2.5s-0.1,0.4-0.1,0.9c-2.7,5.5-5.8,11.9-9.4,19.4C225,400.1,207,430.3,207,430.3l1.4,2.7L235.2,383.4z"/>
	<path class="st0" d="M464.3,592.8c-2.5,0.8-15-0.1-50-68.6l-12.9-31l27.5,27.5c0,0,39,47.7,38.7,66c2.1-3.8,3.6-6.5,4.8-8.3
		c-4.3-1.1-18.3-9.8-13.1-78.8c0,0,33,70.6,14.3,78.9c0,0,0,0-0.1,0c-0.2,0.5-0.5,1.1-0.8,1.7c4.4-4.2,14-10.5,33.4-11.7v15.6
		c-2.4,0.9-5,1.7-7.8,2.6c-23.1,7.2-28.3,3.9-29.1,0.8c-9.4,19-27.4,53.9-27.4,53.9L411,696l-1.8-2.3c0,0,20.8-33.6,38.7-69
		C454.8,610.9,460.2,600.4,464.3,592.8z"/>
	<path class="st0" d="M469.1,424.5c6.5-8.1,11.8-14.8,16.3-20.1c0-0.2-0.1-0.4-0.1-0.5c-4-2.5-12.9-14.8-22-72.9l-2.3-30.4
		l15.9,31.6c0,0,17.2,44.7,15.5,63.9c0,0,0,0,0,0c0.1-0.5,0.2-0.9,0.2-0.9s0.7-2,3-4.9c-1.5-4.9-3.1-20.3,8.4-62.6
		c0.7-2.6,1.4-5,2-7.3v94.6c-9.6-1.2-17.3-3.7-19.9-8.3c-11.7,14.7-25.6,31.7-25.6,31.7L423,481.2l-1.2-2.4
		C421.9,478.8,446.6,452.7,469.1,424.5z"/>
	<path class="st0" d="M457.9,233.3c0,0,0.4-13.4,8.9-20.7c8.5-7.3-2.6-14.4-14-14.1c-11.4,0.4-27.4-9.7-21.5,8.1
		c5.5,16.3-5,120.8-8.2,139.9c-1.7,10-3.2,23.7-4.1,27.4c0,0-1.3,11.5-5.5,19.1c-4.2,7.5,4.5,14.9,18.4,12.7
		c13-2,23.3,12.8,18.4-12.2c-4.9-25-1.5-49.5-1.5-49.5L457.9,233.3z"/>
	<path class="st0" d="M376.1,304c10.4,24.7,16.3,42.2,19.6,54.5c3.4-22.1,21.1-55.7,26.8-68.3c7.5-16.7,23.1-39.8,23.1-39.8
		s-4.6,20.1-4.8,28.2c-0.2,8.5-5.9,29.6-5.9,29.6c-10.4,32.3-18.5,49.5-24.4,58.4c17.8-10.8,47.8-19.4,59.1-23.4
		c11.1-4,27.2-7.4,36.5-9.1v3.6c-5,3.4-11.1,7.8-13.9,10.7c-5.3,5.6-23.1,15.8-23.1,15.8c-48.8,24.5-64.7,24.3-69.8,21.6
		c-2,8.4-22.3,70-30.1,95.4h-1.2c0,0,22.3-74.3,28.9-94.1c-17.9,3.3-33.1-72.6-33.1-72.6s-10.5-56.6-10.3-56.2
		C353.2,256.4,348.9,239.4,376.1,304z"/>
	<path class="st0" d="M12.5,424.3c-0.5-0.2,37.9,43.1,37.9,43.1s52.3,57.5,66.3,42.3c4.4,22.2,19.2,83.8,19.2,83.8l1.7,0.8
		c-6.2-27.9-17.1-78.5-19.6-87.3c5.9-1.2,19.9-11.7,50-66.7c0,0,10.3-21.1,12.1-29.7c1.7-8.2,10.6-28.3,10.6-28.3
		s-21.7,22.6-33,39.1c-7.8,11.3-29.6,39.3-39.6,61c0.6-12-1.2-32.7-8.7-68.6c0,0-5.9-22.8-10.1-30.5c-4-7.3-10.3-28.4-10.3-28.4
		S87,386.1,89.1,406c1.6,15.1,3.3,57.1,11.7,79.1c-9.2-8.8-23.4-20.4-45.2-35.3C-1.3,410.7,11.1,423,12.5,424.3z"/>
</g>
</svg>
