<svg id="Layer_1" data-name="Layer 1" xmlns="http://www.w3.org/2000/svg" viewBox="0 0 105.69 159"><defs><style>.cls-1{fill:#f4eade;}.cls-2{fill:#3e9241;}</style></defs><rect class="cls-1" width="105.69" height="159" rx="6.99"/><path class="cls-2" d="M27.16,66.11l3.61,10.33a46.56,46.56,0,0,1,1.48,4.71h.12c.41-1.52,1-3,1.55-4.71l3.57-10.33H41L33.77,84.5H30.58l-7-18.39Z" transform="translate(-0.24 -0.01)"/><path class="cls-2" d="M47.87,60.94a2.07,2.07,0,0,1-4.14,0,2,2,0,0,1,2.09-2.09A2,2,0,0,1,47.87,60.94ZM44.15,84.5V66.11h3.34V84.5Z" transform="translate(-0.24 -0.01)"/><path class="cls-2" d="M54.9,75.91c.08,4.52,3,6.38,6.31,6.38a12.15,12.15,0,0,0,5.09-1l.57,2.4a14.93,14.93,0,0,1-6.12,1.14c-5.66,0-9-3.73-9-9.28s3.27-9.91,8.62-9.91c6,0,7.6,5.28,7.6,8.66a14.54,14.54,0,0,1-.11,1.56Zm9.8-2.39c0-2.13-.87-5.44-4.63-5.44-3.39,0-4.87,3.12-5.13,5.44Z" transform="translate(-0.24 -0.01)"/><path class="cls-2" d="M76.1,60.83v5.28h4.79v2.54H76.1v9.92c0,2.28.65,3.57,2.51,3.57a7.22,7.22,0,0,0,1.94-.23l.15,2.51a8.09,8.09,0,0,1-3,.46,4.63,4.63,0,0,1-3.61-1.41c-.95-1-1.3-2.62-1.3-4.79v-10H70V66.11h2.84V61.7Z" transform="translate(-0.24 -0.01)"/><path class="cls-2" d="M51.91,87.49v22.23c0,1.63,0,3.49.15,4.74h-3l-.15-3.19h-.08a6.8,6.8,0,0,1-6.27,3.61c-4.44,0-7.86-3.76-7.86-9.34,0-6.12,3.76-9.88,8.24-9.88a6.16,6.16,0,0,1,5.55,2.81h.07v-11Zm-3.35,16.07a5.64,5.64,0,0,0-.15-1.41,4.92,4.92,0,0,0-4.82-3.87c-3.46,0-5.51,3-5.51,7.1,0,3.73,1.82,6.81,5.43,6.81a5,5,0,0,0,4.9-4,5.62,5.62,0,0,0,.15-1.45Z" transform="translate(-0.24 -0.01)"/><path class="cls-2" d="M59.32,105.88c.08,4.52,3,6.38,6.31,6.38a12.15,12.15,0,0,0,5.09-1l.57,2.4a15,15,0,0,1-6.12,1.13c-5.66,0-9-3.72-9-9.27s3.27-9.91,8.62-9.91c6,0,7.6,5.28,7.6,8.66a12.45,12.45,0,0,1-.11,1.56Zm9.8-2.4c0-2.12-.87-5.43-4.63-5.43-3.39,0-4.87,3.12-5.13,5.43Z" transform="translate(-0.24 -0.01)"/><path class="cls-2" d="M22.73,116.46h3.34v27H22.73Z" transform="translate(-0.24 -0.01)"/><path class="cls-2" d="M35.42,119.88a2.07,2.07,0,0,1-4.14,0,2,2,0,0,1,2.09-2.09A2,2,0,0,1,35.42,119.88ZM31.7,143.43V125H35v18.39Z" transform="translate(-0.24 -0.01)"/><path class="cls-2" d="M44.62,119.76V125h4.79v2.55H44.62v9.92c0,2.28.64,3.57,2.51,3.57a7.5,7.5,0,0,0,1.93-.23l.16,2.51a8.4,8.4,0,0,1-3,.45,4.64,4.64,0,0,1-3.61-1.4c-1-1-1.29-2.62-1.29-4.79v-10H38.5V125h2.85v-4.4Z" transform="translate(-0.24 -0.01)"/><path class="cls-2" d="M54.8,134.85c.08,4.52,3,6.38,6.31,6.38a12.11,12.11,0,0,0,5.09-.95l.57,2.39a14.77,14.77,0,0,1-6.12,1.14c-5.66,0-9-3.72-9-9.27s3.27-9.91,8.62-9.91c6,0,7.6,5.28,7.6,8.66a12.45,12.45,0,0,1-.11,1.56Zm9.8-2.4c0-2.12-.87-5.43-4.63-5.43-3.38,0-4.86,3.12-5.13,5.43Z" transform="translate(-0.24 -0.01)"/><path class="cls-2" d="M71.52,140a8.74,8.74,0,0,0,4.41,1.33c2.43,0,3.57-1.21,3.57-2.73s-1-2.47-3.42-3.38c-3.3-1.18-4.86-3-4.86-5.21,0-3,2.39-5.39,6.34-5.39a9.14,9.14,0,0,1,4.52,1.14l-.83,2.43a7.1,7.1,0,0,0-3.76-1.07c-2,0-3.08,1.14-3.08,2.51,0,1.52,1.1,2.21,3.49,3.12,3.2,1.21,4.83,2.81,4.83,5.54,0,3.23-2.51,5.51-6.88,5.51a10.46,10.46,0,0,1-5.16-1.25Z" transform="translate(-0.24 -0.01)"/><rect class="cls-2" x="35.23" width="5.08" height="53.04"/><rect class="cls-2" x="50.14" width="3.97" height="11.44"/><rect class="cls-2" x="50.14" y="13.84" width="3.97" height="10.21"/><rect class="cls-2" x="50.15" y="26.96" width="3.97" height="26.08"/><rect class="cls-2" x="63.96" width="4.53" height="41.02"/></svg>