<svg id="Layer_1" data-name="Layer 1" xmlns="http://www.w3.org/2000/svg" viewBox="0 0 105.69 159"><defs><style>.cls-1{fill:#3e9241;}.cls-2{fill:#fff;}</style></defs><rect class="cls-1" width="105.69" height="159" rx="6.99"/><path class="cls-2" d="M27.4,66.11,31,76.45a46.56,46.56,0,0,1,1.48,4.71h.11c.42-1.52.95-3,1.56-4.71l3.57-10.34h3.5L34,84.5H30.82l-7-18.39Z" transform="translate(-0.48 -0.01)"/><path class="cls-2" d="M48.11,60.94a2.07,2.07,0,0,1-4.14,0,2,2,0,0,1,2.09-2.09A2,2,0,0,1,48.11,60.94ZM44.38,84.5V66.11h3.35V84.5Z" transform="translate(-0.48 -0.01)"/><path class="cls-2" d="M55.14,75.91c.07,4.53,3,6.39,6.31,6.39a12.15,12.15,0,0,0,5.09-1l.57,2.39A15,15,0,0,1,61,84.88c-5.66,0-9-3.72-9-9.27s3.26-9.92,8.62-9.92c6,0,7.6,5.28,7.6,8.67a14.52,14.52,0,0,1-.11,1.55Zm9.8-2.39c0-2.13-.87-5.43-4.63-5.43-3.39,0-4.87,3.11-5.13,5.43Z" transform="translate(-0.48 -0.01)"/><path class="cls-2" d="M76.34,60.83v5.28h4.79v2.55H76.34v9.91c0,2.28.65,3.58,2.51,3.58a7.66,7.66,0,0,0,1.94-.23l.15,2.5a8.11,8.11,0,0,1-3,.46,4.59,4.59,0,0,1-3.6-1.41c-1-1-1.3-2.62-1.3-4.78v-10H70.22V66.11h2.85V61.7Z" transform="translate(-0.48 -0.01)"/><path class="cls-2" d="M52.15,87.49v22.23c0,1.63,0,3.5.15,4.75h-3l-.15-3.19h-.08a6.81,6.81,0,0,1-6.27,3.61c-4.45,0-7.86-3.76-7.86-9.35,0-6.12,3.76-9.88,8.24-9.88a6.16,6.16,0,0,1,5.55,2.81h.07v-11ZM48.8,103.57a5.64,5.64,0,0,0-.15-1.41,4.92,4.92,0,0,0-4.82-3.88c-3.46,0-5.51,3-5.51,7.11,0,3.72,1.82,6.8,5.43,6.8a5,5,0,0,0,4.9-4,5.54,5.54,0,0,0,.15-1.44Z" transform="translate(-0.48 -0.01)"/><path class="cls-2" d="M59.56,105.88c.07,4.52,3,6.39,6.31,6.39a12.15,12.15,0,0,0,5.09-1l.57,2.39a14.93,14.93,0,0,1-6.12,1.14c-5.66,0-9-3.72-9-9.27s3.26-9.92,8.62-9.92c6,0,7.6,5.28,7.6,8.66a14.54,14.54,0,0,1-.11,1.56Zm9.8-2.39c0-2.13-.87-5.43-4.63-5.43-3.39,0-4.87,3.11-5.13,5.43Z" transform="translate(-0.48 -0.01)"/><path class="cls-2" d="M23,116.46h3.34v27H23Z" transform="translate(-0.48 -0.01)"/><path class="cls-2" d="M35.66,119.88a2.07,2.07,0,0,1-4.14,0,2,2,0,0,1,2.09-2.09A2,2,0,0,1,35.66,119.88Zm-3.72,23.56V125.05h3.34v18.39Z" transform="translate(-0.48 -0.01)"/><path class="cls-2" d="M44.86,119.77v5.28h4.78v2.55H44.86v9.91c0,2.28.64,3.57,2.5,3.57a7.69,7.69,0,0,0,1.94-.22l.15,2.5a8,8,0,0,1-3,.46,4.61,4.61,0,0,1-3.61-1.41c-1-1-1.29-2.62-1.29-4.78v-10H38.74v-2.55h2.85v-4.41Z" transform="translate(-0.48 -0.01)"/><path class="cls-2" d="M55,134.85c.08,4.52,3,6.39,6.31,6.39a12.11,12.11,0,0,0,5.09-1l.57,2.39a14.93,14.93,0,0,1-6.12,1.14c-5.66,0-9-3.72-9-9.27s3.27-9.92,8.62-9.92c6,0,7.6,5.28,7.6,8.66a12.3,12.3,0,0,1-.11,1.56Zm9.8-2.39c0-2.13-.87-5.43-4.63-5.43-3.38,0-4.86,3.11-5.13,5.43Z" transform="translate(-0.48 -0.01)"/><path class="cls-2" d="M71.76,140a8.74,8.74,0,0,0,4.41,1.33c2.43,0,3.57-1.22,3.57-2.74s-.95-2.47-3.42-3.38c-3.31-1.18-4.86-3-4.86-5.2,0-3,2.39-5.4,6.34-5.4a9.14,9.14,0,0,1,4.52,1.14l-.83,2.43a7.2,7.2,0,0,0-3.76-1.06c-2,0-3.08,1.14-3.08,2.51s1.1,2.2,3.49,3.11c3.2,1.22,4.83,2.81,4.83,5.55,0,3.23-2.51,5.51-6.88,5.51a10.46,10.46,0,0,1-5.16-1.25Z" transform="translate(-0.48 -0.01)"/><rect class="cls-2" x="35.23" width="5.08" height="53.04"/><rect class="cls-2" x="50.14" width="3.97" height="11.44"/><rect class="cls-2" x="50.14" y="13.84" width="3.97" height="10.21"/><rect class="cls-2" x="50.15" y="26.96" width="3.97" height="26.08"/><rect class="cls-2" x="63.96" width="4.53" height="41.02"/></svg>