<?xml version="1.0" encoding="utf-8"?>
<!-- Generator: Adobe Illustrator 25.2.0, SVG Export Plug-In . SVG Version: 6.00 Build 0)  -->
<svg version="1.1" xmlns="http://www.w3.org/2000/svg" xmlns:xlink="http://www.w3.org/1999/xlink" x="0px" y="0px"
	 viewBox="0 0 265 264" style="enable-background:new 0 0 265 264;" xml:space="preserve">
<style type="text/css">
	.st0{fill:#FFFFFF;}
	.st1{fill:#ABCBD5;}
	.st2{fill:#60B0C6;}
	.st3{fill:#008CBC;}
	.st4{fill:#0D597B;}
</style>
<g id="Layer_2">
</g>
<g id="Layer_1">
	<g>
		<path class="st0" d="M166.1,223.5c-0.9,0-1.3,0.9-1.4,1.5h2.7C167.4,224.4,167.1,223.5,166.1,223.5z"/>
		<path class="st0" d="M86.6,151.3c31,4.6,61.3,11.2,87.7,12.2c31,1.2,57.9-3.6,84.6-18.2c0.5-4.4,0.7-8.9,0.7-13.4
			c0-70.2-56.9-127.1-127.1-127.1S5.4,61.8,5.4,132c0,9.4,1,18.6,3,27.5C20.8,154.3,48.5,145.7,86.6,151.3z M162.2,28.5
			c32,15.7,50.6,55.8,17.4,91.5c0,0.1,0,0.1,0,0.2c-2.1,1.9-6.2,6.6-14.4,11c3.8,5.6-0.1,7.1-2.1,7.1c-1.5,0-4.2-2.3-5.7-3.6
			c-2.6,1-5.4,1.8-8.6,2.6c0.3,1.4,0.9,3.6,1.7,6.8c-2.2,4.5-8.7,1.3-8.7,1.3l0.1-6.6c-3.2,0.5-6.7,1-10.5,1.2c0,0.2,0,0.5,0.1,0.8
			c-3.8,7.4-7.7,2.6-7.7,2.6v-3.1c-0.1,0-0.2,0-0.3,0c-13.8,1.9-34.6-12.6-21.8-19.2c0,0-2.5,3.7,0.3,4c11.5,1.3,49.8-3.1,72.9-17.7
			c0.4-2.6-1.9-2.8-1.9-2.8s6.3-2.2,6.7,5.8c0,0.6,0,1.2,0.1,1.7c5.2-7,17.8-28.4,3.8-54.7C170.6,31.8,122.8,7.7,86.6,43
			C98.6,19.4,135,15.2,162.2,28.5z M136.3,101c5.6-0.4,15.8-0.1,38.8-19.6c-0.7-1.6-4.7-4.4-4.7-4.4l0-1.3l8.9-4.3l0.4-1.5
			c0,0-2.5-7.6-18.8-14.1c-16.3-6.5-44.4-9.9-62.7-7.6c11.1-5.1,38.4-0.2,38.4-0.2s-10.8-9.3-38.4-7.1c0,0,4.3-4.2,24.2-1.1
			c19.9,3.1,30.1,10.4,31.3,11.6c14.5,4,30.5,10.4,29.9,21.5c-2.5,1.1-10.9,3.6-10.8,3.9c0.3,0.5,7.7,4,7.7,4.5
			c-12.1,13.5-48.9,30-59.1,32.3c0.7-3.1,9.3-5.3,9.9-14c-3.5,0.7-23.7,3.7-30.9-9.7c15.4,10.9,31.4,1.9,40.8-1.3
			C141.3,89.2,133.8,94.8,136.3,101z M160,68.1c0-2,1.7-3.5,3.8-3.5c2.1,0,3.8,1.6,3.8,3.5c0,2-1.7,3.5-3.8,3.5
			C161.7,71.6,160,70,160,68.1z M170.6,109.3c0,0-4.7,1.1-5.1,0.8c-0.5-0.3-0.7-2.4-0.5-3.4c0.7-0.9,4.9-1.2,5.4-0.9
			C170.8,106.2,170.6,109.3,170.6,109.3z M162.1,111.7c-0.2,0.4-4.4,1.3-5.1,1c-0.7-0.3-1.2-2.9-0.8-3.8c0.4-0.9,4.5-1.7,5.4-1.2
			C162.3,108.5,162.3,111.3,162.1,111.7z M153.1,114.1c-0.4,0.4-2.8,1.3-4.7,1.2c-1.3-0.9-1.1-4.4-0.8-4.5c0.6-0.9,4.8-1.7,5.3-1.1
			C153.2,110.3,153.4,113.4,153.1,114.1z M145,116.5c-0.2,0.7-3.5,2-5.5,1.4c-0.5-0.1-1-5.1-0.5-5.5c0.5-0.5,3.1-1.1,4.9-1.1
			C145,111.3,145.2,115.8,145,116.5z M136.3,118.5c-0.2,0.4-4.2,2-5,1.3c-0.4-0.4-1-4-0.8-4.9c0.3-1.2,3.4-2,5.1-1.3
			C136.1,113.8,136.5,118.1,136.3,118.5z M127.6,120c-0.2,0.5-4.6,1.4-5.1,1.1c-0.3-0.2-0.9-3.7-0.5-4.4c0.5-1,4.8-1.6,5.2-1.4
			C127.5,115.5,127.8,119.5,127.6,120z M118.8,121.5c-0.1,0.5-4.7,1-5.2,0.7c-0.5-0.3-1.1-3.2-0.3-3.9c0.3-0.3,3.5-1.4,5.2-0.6
			C119.1,118.6,119,121,118.8,121.5z M110.1,122.7c-0.1,0.4-4.4,1.1-4.9,0.9c-0.5-0.3-1.3-2.9-0.7-3.4c0.5-0.5,4.1-1.1,4.7-0.8
			C109.8,119.6,110.2,122.4,110.1,122.7z M66.2,71.1c0.4-14.2,9.3-24.6,23.4-23.7c0,0-14,1.9-15,20.7c-0.8,14.8,12.3,12.6,12.3,12.6
			s17.5-9.7,35.9-3.3c-17.7,2.5-29.1,14.8-31.4,25.1c-1.6,7.3-0.3,17.9,0.4,19.7c3.3,8.6,10.2,13.4,10.2,13.4S72.6,122,69.8,89.7
			c4.2,19.3,12.5,23.9,12.5,23.9s-4.3-13.9-2.7-19.8C77.1,92.2,65.9,85.5,66.2,71.1z"/>
		<path class="st0" d="M146.8,224.8c-0.4,0-0.9,0.3-1,0.8c0,0.1,0,0.2,0,0.3v0.6c0,0.1,0,0.2,0,0.2c0.1,0.4,0.5,0.8,1,0.8
			c0.7,0,1.1-0.6,1.1-1.4C147.8,225.4,147.5,224.8,146.8,224.8z"/>
		<path class="st0" d="M86.6,161.2c31,4.6,61.3,11.2,87.7,12.2c30.3,1.2,56.8-3.4,83-17.3c0.3-1.7,0.6-3.3,0.9-5
			c-12.2,6.7-53,25.4-110,15.6c-26.3-4.5-65.5-12.9-88-12.2c-26.9,0.9-39.1,4.9-50.7,10.1c0.3,1.3,0.7,2.6,1.1,3.8
			C24,163.2,50.7,155.8,86.6,161.2z"/>
		<path class="st0" d="M86.6,171.2c31,4.6,61.3,11.2,87.7,12.2c29.3,1.1,55-3.1,80.3-15.9c0.5-1.8,1-3.7,1.5-5.5
			c-14.4,7.4-53.8,23.8-107.8,14.5c-26.3-4.5-65.5-12.9-88-12.2c-24.9,0.8-37.2,4.3-48.1,8.9c0.5,1.4,1,2.7,1.5,4
			C27.8,172.2,53.2,166.2,86.6,171.2z"/>
		<path class="st0" d="M182.8,223.5c-0.9,0-1.3,0.9-1.4,1.5h2.7C184,224.4,183.8,223.5,182.8,223.5z"/>
		<path class="st0" d="M198.4,223.5c-0.9,0-1.3,0.9-1.4,1.5h2.7C199.7,224.4,199.4,223.5,198.4,223.5z"/>
		<path class="st0" d="M177.1,223.5c-0.9,0-1.5,0.8-1.5,1.9c0,1,0.5,1.9,1.5,1.9c0.6,0,1.2-0.4,1.3-1.1c0-0.1,0-0.2,0-0.4V225
			c0-0.1,0-0.3,0-0.4C178.2,224,177.7,223.5,177.1,223.5z"/>
		<path class="st0" d="M148.3,186.5c-26.3-4.5-65.5-12.9-88-12.2c-22.4,0.7-34.6,3.6-44.8,7.6c19.4,45.4,64.5,77.2,117,77.2
			c55.6,0,102.8-35.7,120.1-85.4C236,181.7,198.4,195.2,148.3,186.5z M159.7,205.2c0.3-0.2,0.8-0.1,1,0.3c0.3,0.4,0.2,0.8-0.1,1.1
			c-0.9,0.9-1.9,0.6-3.2,0.3C158.1,205.9,159,205.7,159.7,205.2z M146.9,228c-0.5,0-0.9-0.2-1.2-0.7h0l0,0.6h-0.6c0-0.2,0-0.6,0-0.9
			v-4.3h0.6v2.2h0c0.2-0.4,0.6-0.7,1.2-0.7c0.9,0,1.5,0.7,1.5,1.8C148.5,227.3,147.7,228,146.9,228z M151.2,226.9
			c-0.5,1.2-0.8,1.8-1.2,2.2c-0.3,0.3-0.6,0.4-0.8,0.4L149,229c0.2-0.1,0.4-0.2,0.6-0.3c0.2-0.1,0.4-0.4,0.5-0.7
			c0-0.1,0.1-0.1,0.1-0.2c0,0,0-0.1,0-0.2l-1.3-3.3h0.7l0.8,2.1c0.1,0.2,0.2,0.5,0.2,0.7h0c0.1-0.2,0.1-0.5,0.2-0.7l0.7-2.1h0.7
			L151.2,226.9z M158.9,227.9H158l-1.9-5h1l1,2.8c0.2,0.5,0.3,0.9,0.4,1.3h0c0.1-0.4,0.3-0.8,0.4-1.3l1-2.8h1L158.9,227.9z
			 M162.6,227.9h-0.9v-5h0.9V227.9z M162.2,222.1c-0.3,0-0.5-0.2-0.5-0.6c0-0.3,0.2-0.6,0.6-0.6c0.3,0,0.6,0.2,0.6,0.6
			C162.8,221.8,162.5,222.1,162.2,222.1z M168.2,225.6h-3.5c0,1.2,0.8,1.7,1.7,1.7c0.7,0,1-0.1,1.4-0.3l0.2,0.7
			c-0.3,0.1-0.9,0.3-1.7,0.3c-1.5,0-2.5-1-2.5-2.5s0.9-2.7,2.4-2.7c1.6,0,2.1,1.4,2.1,2.4C168.2,225.4,168.2,225.5,168.2,225.6z
			 M171.8,223.6h-1.3v2.7c0,0.6,0.2,1,0.7,1c0.2,0,0.4,0,0.5-0.1l0,0.7c-0.2,0.1-0.5,0.1-0.8,0.1c-0.4,0-0.8-0.1-1-0.4
			c-0.3-0.3-0.4-0.7-0.4-1.3v-2.7h-0.8v-0.7h0.8v-1.2l0.9-0.2v1.4h1.3V223.6z M178.5,227.9l0-0.9h0c-0.3,0.6-0.9,1-1.7,1
			c-1.2,0-2.1-1-2.1-2.6c0-1.7,1-2.7,2.3-2.7c0.8,0,1.3,0.4,1.5,0.8h0v-3h0.9v6.1c0,0.4,0,1,0,1.3H178.5z M184.9,225.6h-3.5
			c0,1.2,0.8,1.7,1.7,1.7c0.7,0,1-0.1,1.4-0.3l0.2,0.7c-0.3,0.1-0.9,0.3-1.7,0.3c-1.5,0-2.5-1-2.5-2.5s0.9-2.7,2.4-2.7
			c1.6,0,2.1,1.4,2.1,2.4C184.9,225.4,184.9,225.5,184.9,225.6z M189.1,227.9h-0.9v-7.4h0.9V227.9z M191.6,227.9h-0.9v-5h0.9V227.9z
			 M191.1,222.1c-0.3,0-0.5-0.2-0.5-0.6c0-0.3,0.2-0.6,0.6-0.6c0.3,0,0.6,0.2,0.6,0.6C191.7,221.8,191.5,222.1,191.1,222.1z
			 M195.5,223.6h-1.3v2.7c0,0.6,0.2,1,0.7,1c0.2,0,0.4,0,0.5-0.1l0,0.7c-0.2,0.1-0.5,0.1-0.8,0.1c-0.4,0-0.8-0.1-1-0.4
			c-0.3-0.3-0.4-0.7-0.4-1.3v-2.7h-0.8v-0.7h0.8v-1.2l0.9-0.2v1.4h1.3V223.6z M200.5,225.6H197c0,1.2,0.8,1.7,1.7,1.7
			c0.7,0,1-0.1,1.4-0.3l0.2,0.7c-0.3,0.1-0.9,0.3-1.7,0.3c-1.5,0-2.5-1-2.5-2.5s0.9-2.7,2.4-2.7c1.6,0,2.1,1.4,2.1,2.4
			C200.5,225.4,200.5,225.5,200.5,225.6z M202.7,228.1c-0.5,0-1.1-0.1-1.4-0.3l0.2-0.7c0.3,0.2,0.7,0.4,1.2,0.4c0.7,0,1-0.3,1-0.7
			c0-0.4-0.3-0.7-0.9-0.9c-0.9-0.3-1.3-0.8-1.3-1.4c0-0.8,0.7-1.5,1.7-1.5c0.5,0,1,0.1,1.2,0.3l-0.2,0.7c-0.2-0.1-0.6-0.3-1-0.3
			c-0.5,0-0.8,0.3-0.8,0.7c0,0.4,0.3,0.6,1,0.9c0.9,0.3,1.3,0.8,1.3,1.5C204.6,227.4,203.9,228.1,202.7,228.1z M209.8,220.1
			c-2.2-1-4.3-2.1-6.6-2.9c-4.1-1.6-8.3-2.7-12.6-3.1c-6-0.6-12-0.3-17.9,0.9c-1.6,0.3-2.7-0.3-3.3-1.9c-1.1,0.3-2.2,0.8-3.3,1
			c-2.2,0.5-3.1-0.2-3.5-2.5c-1.9,0.6-3.7,1.6-5.7,1.9c-0.6,0.1-1.2,0.2-1.8,0.1c-1.4,0-1.8-0.4-2.1-1.8c-1-0.2-2,0.2-2.9,0.2
			c-0.9,0-1.8,0.2-2.3-0.8c-0.5-1,0.4-1.6,1-2.3c-1.8-1.1-3.1-2.9-5.5-2.7c-2.1,0.2-4.1,0.9-5.9,1.8c-1,0.5-1.9,1.2-2.8,1.9
			c2.5-0.3,5-0.3,7.4-0.2c1.2,0,2.4,0.1,3.4,1c0.8,0.8,0.8,1.5,0.2,2.4c-1.2,1.5-2.9,2.4-4.6,3.1c-5.2,2.4-10.6,4.2-16.5,3.9
			c-2.3-0.1-4.4-0.6-6-2.4c-0.7-0.8-1-1.9-1.5-3c-3.5,1.5-6.4,0.6-8.8-2.4c-0.8,1.4-1.6,2.6-2.9,3.3c-2.2,1.1-3.7,0.3-3.8-2.1
			c0-0.2,0-0.4-0.1-0.7c-1,0.9-2,1.8-2.9,2.6c-0.3,0.3-0.7,0.6-1.1,0.8c-1.8,1.1-3.4,0.4-4.1-1.6c-0.1-0.3,0-0.7-0.4-1
			c-1.2-0.1-1.8,0.4-1.9,1.7c-0.2,4-2.4,6.7-5.5,8.9c-5.4,3.9-11.6,5.5-18.2,6.2c-3.9,0.4-7.8,0.4-11.6-0.5
			c-0.9-0.2-1.8-0.6-2.6-1.2c-1.5-1.1-1.7-2.8-0.5-4.3c1.4-1.7,3.4-2.6,5.3-3.5c5-2.1,10.2-3.4,15.5-4.7c5.3-1.3,10.7-2.1,16-3.3
			c0.2-1.3-0.7-1.9-1.5-2.4c-1.8-1.1-3.9-0.9-5.8-1.1c-1.1-0.1-2.1-0.3-3-0.7c-1.4-0.6-2-1.8-1.5-3.3c1.3-4.1,7.6-7.4,11.8-6.1
			c1,0.3,1.6,0.8,1.4,1.9c-0.2,0.9-1.4,1.8-2.3,1.7c-0.8-0.1-1-0.5-0.7-1.2c0.2-0.4,0.5-0.8,0.7-1.2c-0.8-0.7-1.7-0.4-2.5-0.2
			c-2.6,0.6-4.7,1.9-6,4.2c-0.8,1.4-0.6,1.6,0.9,2c2.3,0.6,4.8,0.6,6.9,1.8c1.3,0.7,2.2,1.6,2.8,2.8c0.3,0.5,0.1,1.4,1.1,1.3
			c0.9-0.1,1.7-0.3,2.3-1.2c1.2-1.9,2.8-3.2,5.2-3.2c0.6,0,1.1,0.2,1.5,0.5c0.8,0.6,0.8,1.5-0.1,2.1c-1.4,1-3.1,1.3-4.7,1.9
			c-0.5,0.2-1.3,0-1.5,0.7c-0.2,0.6,0.4,0.9,0.8,1.2c0.6,0.6,1.1,0.5,1.9,0.2c1.6-0.7,2.7-2,4-3.1c1.6-1.4,3.2-3,5.4-3.6
			c0.8-0.2,1.1-0.4,1.7,0.7c0.7,1.4,1.1,3.1,2.3,4.3c1.9,2,5.4,1.7,6.8-0.7c1.1-1.8,1.8-3.9,3.3-5.5c4.4-4.7,9.7-7.5,16-8.4
			c2.4-0.4,4.9-0.4,7.3,0c0.8,0.1,1.5,0.4,1.6,1.2c0.2,0.8-0.6,1.2-1.1,1.6c-0.6,0.5-1.3,0.9-2.1,0.5c-0.7-0.3-0.6-1.1,0-1.5
			c0.4-0.2,0.9-0.2,1-0.9c-0.8-0.4-1.6-0.5-2.4-0.5c-3.3,0-6.4,0.5-9.4,1.9c-3.4,1.6-6.6,3.6-9.2,6.4c-1.3,1.5-2.4,3.2-2.8,5.2
			c-0.5,2.5,0.9,4.7,3.4,5.1c6.3,1.2,12.1-0.3,17.8-2.8c1.2-0.5,2.3-1,3.3-1.8c0.3-0.2,0.7-0.4,0.7-1c-0.6-0.3-1.3-0.4-2-0.4
			c-3.2-0.1-6.4-0.5-9.5-0.1c-0.6,0.1-1.3,0.3-1.6-0.4c-0.3-0.7,0.1-1.2,0.6-1.7c2-2,4.5-2.8,7.1-3.4c3.2-0.8,6.4-1,9.5,0.7
			c0.7,0.4,1.5,0.5,2.4,0.4c0.6,0,1,0.2,1.1,0.8c0.2,0.6-0.2,0.9-0.7,1.2c-0.8,0.5-1.9,0.5-2.5,1.3c0.2,0.5,0.5,0.5,0.8,0.4
			c1.9-0.5,3.9-0.6,5.4-2.2c0.4-0.5,1.2-0.7,1.7,0c0.5,0.7-0.1,1.1-0.6,1.6c-0.5,0.5-1.6,0.5-1.2,1.8c1.8,0.3,3.5,0,5.3-0.6
			c0.5-0.2,0.9-0.4,1.4-0.6c1.1-0.4,1.9-1,2.4-2.1c1.8-3.5,3.9-6.6,7.6-8.4c0.4-0.2,0.8-0.3,1.3-0.5c0.8-0.3,1.7-0.3,2.2,0.5
			c0.5,0.8,0.2,1.7-0.4,2.4c-1.9,2.4-4.2,4.3-6.8,6c-0.8,0.5-1.7,1-2.6,1.5c-0.5,0.3-1,0.6-1.2,1.2c-0.3,1.3,0,1.8,1.3,1.6
			c2.3-0.3,4.3-1,5.5-3.3c1.6-3.1,3.9-5.5,7.5-6.2c0.9-0.2,1.8-0.1,2.3,0.7c0.5,0.8,0,1.5-0.6,2.2c-1.8,1.9-4.1,3.3-6.4,4.5
			c-0.7,0.4-1.4,0.8-2.2,1.1c-0.4,0.2-0.9,0.5-0.7,1c0.1,0.5,0.6,0.7,1,0.8c1.1,0.1,2.2,0,3.3-0.1c7.9-1.1,15.9-1.7,23.9-0.2
			c4.1,0.8,8,2.1,11.6,4.2c0.6,0.4,1.3,0.6,1.3,1.5C211.7,220,210.8,220.5,209.8,220.1z"/>
		<path class="st1" d="M148.3,166.7c57,9.8,97.7-9,110-15.6c0.3-1.9,0.5-3.8,0.7-5.7c-26.7,14.6-53.7,19.4-84.6,18.2
			c-26.4-1-56.7-7.6-87.7-12.2c-38.1-5.7-65.8,2.9-78.3,8.1c0.4,1.7,0.8,3.4,1.2,5.1c11.6-5.3,23.8-9.2,50.7-10.1
			C82.7,153.7,121.9,162.2,148.3,166.7z"/>
		<path class="st2" d="M148.3,176.5c54,9.3,93.4-7.1,107.8-14.5c0.5-2,0.9-3.9,1.3-5.9c-26.2,13.9-52.7,18.5-83,17.3
			c-26.4-1-56.7-7.6-87.7-12.2c-35.9-5.3-62.6,2-76,7.2c0.5,1.6,1,3.2,1.5,4.9c10.9-4.7,23.2-8.2,48.1-8.9
			C82.7,163.6,121.9,172,148.3,176.5z"/>
		<path class="st3" d="M148.3,186.5c50.2,8.6,87.7-4.9,104.4-12.8c0.7-2,1.4-4.1,2-6.2c-25.3,12.8-51,17-80.3,15.9
			c-26.4-1-56.7-7.6-87.7-12.2c-33.4-5-58.8,1-72.9,6.1c0.6,1.6,1.2,3.1,1.9,4.6c10.2-4,22.3-6.9,44.8-7.6
			C82.7,173.6,121.9,182,148.3,186.5z"/>
		<path class="st3" d="M100.3,89.9c7.2,13.4,27.4,10.4,30.9,9.7c-0.6,8.6-9.2,10.9-9.9,14c10.2-2.3,47-18.8,59.1-32.3
			c0-0.5-7.4-4.1-7.7-4.5c-0.2-0.3,8.2-2.7,10.8-3.9c0.6-11.1-15.4-17.5-29.9-21.5c-1.2-1.1-11.4-8.4-31.3-11.6
			c-19.9-3.1-24.2,1.1-24.2,1.1c27.5-2.1,38.4,7.1,38.4,7.1s-27.3-4.9-38.4,0.2c18.4-2.4,46.4,1.1,62.7,7.6
			c16.3,6.5,18.8,14.1,18.8,14.1l-0.4,1.5l-8.9,4.3l0,1.3c0,0,4,2.8,4.7,4.4c-23,19.5-33.2,19.2-38.8,19.6c-2.5-6.2,5-11.8,4.8-12.3
			C131.7,91.9,115.6,100.8,100.3,89.9z"/>
		<path class="st3" d="M79.5,93.8c-1.6,5.9,2.7,19.8,2.7,19.8s-8.3-4.5-12.5-23.9c2.8,32.3,32.3,45.9,32.3,45.9s-7-4.8-10.2-13.4
			c-0.7-1.8-2-12.4-0.4-19.7c2.3-10.4,13.7-22.6,31.4-25.1c-18.4-6.4-35.9,3.3-35.9,3.3s-13.2,2.2-12.3-12.6c1-18.7,15-20.7,15-20.7
			c-14-0.9-23,9.5-23.4,23.7C65.9,85.5,77.1,92.2,79.5,93.8z"/>
		<ellipse cx="163.8" cy="68.1" rx="3.8" ry="3.5"/>
		<path d="M104.5,120.2c-0.5,0.5,0.2,3.1,0.7,3.4c0.5,0.3,4.8-0.5,4.9-0.9c0.1-0.4-0.3-3.1-0.9-3.4
			C108.6,119.1,105,119.7,104.5,120.2z"/>
		<path d="M113.4,118.2c-0.8,0.7-0.2,3.7,0.3,3.9c0.5,0.3,5.1-0.2,5.2-0.7s0.2-2.9-0.3-3.8C116.9,116.8,113.7,118,113.4,118.2z"/>
		<path d="M122,116.6c-0.4,0.7,0.2,4.2,0.5,4.4c0.5,0.3,4.9-0.6,5.1-1.1s-0.1-4.4-0.5-4.7C126.7,115,122.5,115.7,122,116.6z"/>
		<path d="M130.5,114.9c-0.2,0.8,0.4,4.5,0.8,4.9c0.8,0.7,4.8-0.9,5-1.3c0.2-0.4-0.3-4.7-0.6-4.9C134,112.9,130.8,113.7,130.5,114.9
			z"/>
		<path d="M139,112.4c-0.5,0.5,0.1,5.4,0.5,5.5c1.9,0.5,5.3-0.8,5.5-1.4c0.2-0.7,0.1-5.2-1-5.2C142.1,111.3,139.4,111.9,139,112.4z"
			/>
		<path d="M147.5,110.8c-0.3,0.1-0.5,3.6,0.8,4.5c1.9,0.1,4.3-0.8,4.7-1.2c0.4-0.7,0.1-3.8-0.3-4.4
			C152.3,109.1,148,109.9,147.5,110.8z"/>
		<path d="M156.1,108.8c-0.4,0.9,0.2,3.5,0.8,3.8c0.7,0.3,4.9-0.6,5.1-1c0.2-0.4,0.2-3.2-0.5-4.1
			C160.7,107.1,156.5,107.9,156.1,108.8z"/>
		<path d="M165,106.7c-0.3,0.9,0,3,0.5,3.4c0.5,0.3,5.1-0.8,5.1-0.8s0.3-3.1-0.2-3.4C169.9,105.5,165.7,105.8,165,106.7z"/>
		<path class="st4" d="M177.7,114.7c0,0,0.8-0.9,2-2.5c0-0.5,0-1.1-0.1-1.7c-0.3-8-6.7-5.8-6.7-5.8s2.4,0.2,1.9,2.8
			c-23.1,14.5-61.3,18.9-72.9,17.7c-2.8-0.3-0.3-4-0.3-4c-12.8,6.6,8,21.1,21.8,19.2c0.1,0,0.2,0,0.3,0v-1.7c0,0,6.9-5.1,7.6,1.4
			c3.8-0.3,7.3-0.7,10.5-1.2l0-2.4l6.5-0.8c0,0,0.1,0.6,0.4,1.9c3.2-0.8,6-1.7,8.6-2.6c-0.6-0.5-0.9-0.9-0.9-0.9s1.2-0.4,7.6-4
			c0.4,0.5,0.8,1,1.1,1.4c8.2-4.4,12.3-9.1,14.4-11c0-0.1,0-0.1,0-0.2c-0.6,0.7-1.2,1.3-1.9,2C169.7,120,177.7,114.7,177.7,114.7z"
			/>
		<path class="st4" d="M123.8,138.6v1.7v3.1c0,0,3.9,4.8,7.7-2.6c0-0.3,0-0.5-0.1-0.8C130.7,133.5,123.8,138.6,123.8,138.6z"/>
		<path class="st4" d="M141.9,136.3l0,2.4l-0.1,6.6c0,0,6.5,3.2,8.7-1.3c-0.8-3.1-1.3-5.4-1.7-6.8c-0.3-1.2-0.4-1.9-0.4-1.9
			L141.9,136.3z"/>
		<path class="st4" d="M156.5,133.8c0,0,0.4,0.4,0.9,0.9c1.4,1.3,4.2,3.6,5.7,3.6c2,0,5.9-1.5,2.1-7.1c-0.3-0.4-0.7-0.9-1.1-1.4
			C157.7,133.4,156.5,133.8,156.5,133.8z"/>
		<path class="st4" d="M183.5,57.5c14,26.3,1.4,47.7-3.8,54.7c-1.2,1.6-2,2.5-2,2.5s-8,5.3,0,7.3c0.6-0.7,1.3-1.3,1.9-2
			c33.2-35.7,14.5-75.8-17.4-91.5C135,15.2,98.6,19.4,86.6,43C122.8,7.7,170.6,31.8,183.5,57.5z"/>
		<path class="st0" d="M173.9,200.9c-2.8-0.2-6.9,4-8,6.7C168.7,205.5,171.8,203.9,173.9,200.9z"/>
		<path class="st0" d="M95,211.7c1.4-0.4,2.8-0.7,4-1.7C97.4,209.2,95.6,210,95,211.7z"/>
		<path class="st0" d="M88.3,214.5c-4.7,1.3-9.5,2.5-14.2,3.8c-5.3,1.5-10.6,3.1-15.7,5.1c-2,0.8-4.1,1.5-5.3,3.4
			c0.2,0.6,0.6,0.8,1,1c2,1.2,4.3,0.8,6.5,0.9c5.2,0.1,10.2-0.9,15.1-2.4c3.9-1.1,7.6-2.7,10.7-5.5c1.9-1.7,3.1-3.7,3.1-6.4
			C89,214.3,88.6,214.4,88.3,214.5z"/>
		<path class="st0" d="M179.1,204.4c-2.9,0-7,3.1-7.1,5.5C174.5,208.3,177.3,207.3,179.1,204.4z"/>
		<path class="st0" d="M103.6,211.3c-0.6,0.9-1.3,1.8-0.5,2.9c0.4,0.6,2.1-0.1,3-0.8c1.4-1.2,1.2-2.5,0.6-4.1
			C105.6,209.6,104.4,210.2,103.6,211.3z"/>
		<path class="st3" d="M210.4,217.5c-3.6-2.1-7.5-3.4-11.6-4.2c-8-1.5-15.9-0.9-23.9,0.2c-1.1,0.1-2.2,0.3-3.3,0.1
			c-0.4,0-0.9-0.3-1-0.8c-0.1-0.5,0.3-0.8,0.7-1c0.7-0.4,1.5-0.7,2.2-1.1c2.3-1.2,4.6-2.6,6.4-4.5c0.6-0.6,1.1-1.3,0.6-2.2
			c-0.5-0.8-1.4-0.9-2.3-0.7c-3.6,0.7-5.9,3.1-7.5,6.2c-1.2,2.3-3.2,3-5.5,3.3c-1.3,0.2-1.6-0.4-1.3-1.6c0.2-0.7,0.7-0.9,1.2-1.2
			c0.9-0.5,1.8-0.9,2.6-1.5c2.6-1.6,4.9-3.5,6.8-6c0.6-0.7,0.9-1.6,0.4-2.4c-0.5-0.8-1.4-0.7-2.2-0.5c-0.4,0.1-0.9,0.3-1.3,0.5
			c-3.7,1.8-5.8,5-7.6,8.4c-0.6,1.1-1.3,1.8-2.4,2.1c-0.5,0.1-0.9,0.4-1.4,0.6c-1.7,0.6-3.5,0.9-5.3,0.6c-0.4-1.2,0.7-1.3,1.2-1.8
			c0.5-0.4,1.1-0.8,0.6-1.6c-0.5-0.7-1.2-0.5-1.7,0c-1.5,1.6-3.5,1.7-5.4,2.2c-0.3,0.1-0.6,0.1-0.8-0.4c0.6-0.9,1.7-0.8,2.5-1.3
			c0.4-0.3,0.9-0.5,0.7-1.2c-0.2-0.6-0.6-0.8-1.1-0.8c-0.8,0.1-1.7,0-2.4-0.4c-3.1-1.7-6.3-1.5-9.5-0.7c-2.6,0.7-5.1,1.5-7.1,3.4
			c-0.5,0.5-0.9,1-0.6,1.7c0.3,0.7,1.1,0.4,1.6,0.4c3.2-0.4,6.4,0,9.5,0.1c0.7,0,1.4,0.1,2,0.4c0,0.6-0.4,0.8-0.7,1
			c-1,0.8-2.2,1.3-3.3,1.8c-5.7,2.5-11.5,4.1-17.8,2.8c-2.5-0.5-4-2.6-3.4-5.1c0.4-2,1.5-3.7,2.8-5.2c2.5-2.9,5.7-4.8,9.2-6.4
			c3-1.4,6.1-1.9,9.4-1.9c0.8,0,1.7,0.1,2.4,0.5c-0.1,0.7-0.7,0.6-1,0.9c-0.6,0.4-0.7,1.2,0,1.5c0.8,0.3,1.5-0.1,2.1-0.5
			c0.5-0.4,1.2-0.8,1.1-1.6c-0.2-0.8-0.8-1.1-1.6-1.2c-2.4-0.4-4.9-0.3-7.3,0c-6.3,0.9-11.7,3.7-16,8.4c-1.5,1.6-2.2,3.6-3.3,5.5
			c-1.4,2.4-4.8,2.7-6.8,0.7c-1.2-1.2-1.5-2.9-2.3-4.3c-0.6-1.1-1-1-1.7-0.7c-2.2,0.6-3.7,2.2-5.4,3.6c-1.3,1.1-2.4,2.3-4,3.1
			c-0.7,0.3-1.3,0.3-1.9-0.2c-0.3-0.3-0.9-0.6-0.8-1.2c0.2-0.7,1-0.5,1.5-0.7c1.6-0.6,3.2-0.9,4.7-1.9c0.9-0.6,0.9-1.6,0.1-2.1
			c-0.5-0.3-1-0.5-1.5-0.5c-2.4,0-4,1.2-5.2,3.2c-0.6,0.9-1.4,1.1-2.3,1.2c-1,0.1-0.8-0.8-1.1-1.3c-0.6-1.3-1.5-2.2-2.8-2.8
			c-2.2-1.1-4.6-1.2-6.9-1.8c-1.5-0.4-1.6-0.6-0.9-2c1.3-2.4,3.5-3.7,6-4.2c0.8-0.2,1.7-0.5,2.5,0.2c-0.3,0.4-0.5,0.8-0.7,1.2
			c-0.3,0.7-0.1,1.1,0.7,1.2c0.9,0.1,2.2-0.8,2.3-1.7c0.2-1.1-0.4-1.6-1.4-1.9c-4.2-1.2-10.5,2-11.8,6.1c-0.5,1.5,0.1,2.7,1.5,3.3
			c1,0.4,2,0.6,3,0.7c2,0.2,4,0,5.8,1.1c0.9,0.5,1.8,1.1,1.5,2.4c-5.4,1.2-10.7,2.1-16,3.3c-5.2,1.3-10.5,2.6-15.5,4.7
			c-2,0.8-3.9,1.8-5.3,3.5c-1.2,1.4-1,3.2,0.5,4.3c0.8,0.5,1.6,1,2.6,1.2c3.8,0.9,7.7,1,11.6,0.5c6.5-0.7,12.7-2.4,18.2-6.2
			c3.1-2.2,5.3-4.9,5.5-8.9c0.1-1.2,0.7-1.8,1.9-1.7c0.3,0.3,0.3,0.7,0.4,1c0.6,2,2.3,2.6,4.1,1.6c0.4-0.2,0.8-0.5,1.1-0.8
			c1-0.8,1.9-1.7,2.9-2.6c0,0.3,0,0.5,0.1,0.7c0.1,2.4,1.6,3.3,3.8,2.1c1.3-0.7,2.1-1.9,2.9-3.3c2.4,3,5.3,3.9,8.8,2.4
			c0.5,1,0.8,2.1,1.5,3c1.6,1.8,3.8,2.3,6,2.4c5.9,0.3,11.3-1.5,16.5-3.9c1.7-0.8,3.4-1.6,4.6-3.1c0.6-0.9,0.7-1.6-0.2-2.4
			c-1-0.9-2.2-1-3.4-1c-2.5-0.1-4.9-0.1-7.4,0.2c0.9-0.7,1.8-1.4,2.8-1.9c1.9-0.9,3.8-1.6,5.9-1.8c2.5-0.2,3.7,1.6,5.5,2.7
			c-0.6,0.7-1.5,1.3-1,2.3c0.5,0.9,1.5,0.7,2.3,0.8c1,0,2-0.4,2.9-0.2c0.3,1.4,0.7,1.8,2.1,1.8c0.6,0,1.2-0.1,1.8-0.1
			c2-0.3,3.8-1.3,5.7-1.9c0.3,2.3,1.2,3,3.5,2.5c1.1-0.2,2.2-0.7,3.3-1c0.7,1.6,1.7,2.2,3.3,1.9c5.9-1.1,11.9-1.4,17.9-0.9
			c4.4,0.4,8.5,1.6,12.6,3.1c2.3,0.9,4.4,1.9,6.6,2.9c1,0.5,2,0,1.9-1C211.7,218.1,211,217.9,210.4,217.5z M179.1,204.4
			c-1.7,3-4.6,3.9-7.1,5.5C172.1,207.5,176.1,204.4,179.1,204.4z M173.9,200.9c-2.2,3-5.2,4.7-8,6.7
			C167,204.8,171.1,200.7,173.9,200.9z M99,209.9c-1.1,1.1-2.6,1.3-4,1.7C95.6,210,97.4,209.2,99,209.9z M86.4,220.9
			c-3.1,2.8-6.8,4.4-10.7,5.5c-4.9,1.5-10,2.5-15.1,2.4c-2.2,0-4.5,0.4-6.5-0.9c-0.4-0.2-0.8-0.4-1-1c1.2-2,3.3-2.7,5.3-3.4
			c5.1-2,10.4-3.6,15.7-5.1c4.7-1.4,9.5-2.5,14.2-3.8c0.4-0.1,0.7-0.2,1.2,0C89.5,217.1,88.3,219.2,86.4,220.9z M106.2,213.4
			c-0.9,0.8-2.6,1.4-3,0.8c-0.9-1.1-0.2-2,0.5-2.9c0.8-1.1,1.9-1.7,3.2-2C107.4,210.8,107.6,212.2,106.2,213.4z"/>
		<path class="st3" d="M160.6,206.6c0.3-0.3,0.4-0.7,0.1-1.1c-0.3-0.4-0.7-0.5-1-0.3c-0.7,0.5-1.5,0.7-2.3,1.7
			C158.7,207.2,159.7,207.5,160.6,206.6z"/>
		<path class="st4" d="M147,224.2c-0.6,0-1,0.3-1.2,0.7h0v-2.2h-0.6v4.3c0,0.3,0,0.7,0,0.9h0.6l0-0.6h0c0.3,0.5,0.7,0.7,1.2,0.7
			c0.8,0,1.6-0.6,1.6-1.9C148.5,225,147.9,224.2,147,224.2z M146.7,227.5c-0.5,0-0.8-0.3-1-0.8c0-0.1,0-0.2,0-0.2v-0.6
			c0-0.1,0-0.2,0-0.3c0.1-0.5,0.5-0.8,1-0.8c0.7,0,1.1,0.6,1.1,1.3C147.8,226.9,147.4,227.5,146.7,227.5z"/>
		<path class="st4" d="M150.7,226.4c-0.1,0.3-0.2,0.5-0.2,0.7h0c-0.1-0.2-0.1-0.5-0.2-0.7l-0.8-2.1h-0.7l1.3,3.3c0,0.1,0,0.1,0,0.2
			c0,0,0,0.1-0.1,0.2c-0.1,0.3-0.4,0.6-0.5,0.7c-0.2,0.2-0.4,0.3-0.6,0.3l0.2,0.5c0.2,0,0.5-0.1,0.8-0.4c0.4-0.4,0.8-1,1.2-2.2
			l1-2.5h-0.7L150.7,226.4z"/>
		<path class="st4" d="M158.9,225.7c-0.2,0.5-0.3,0.9-0.4,1.3h0c-0.1-0.4-0.2-0.8-0.4-1.3l-1-2.8h-1l1.9,5h0.9l2-5h-1L158.9,225.7z"
			/>
		<rect x="161.7" y="222.9" class="st4" width="0.9" height="5"/>
		<path class="st4" d="M162.2,220.9c-0.3,0-0.6,0.2-0.6,0.6c0,0.3,0.2,0.6,0.5,0.6c0.4,0,0.6-0.2,0.6-0.6
			C162.8,221.2,162.5,220.9,162.2,220.9z"/>
		<path class="st4" d="M166.2,222.8c-1.5,0-2.4,1.2-2.4,2.7s0.9,2.5,2.5,2.5c0.8,0,1.3-0.2,1.7-0.3l-0.2-0.7
			c-0.3,0.1-0.7,0.3-1.4,0.3c-0.9,0-1.7-0.5-1.7-1.7h3.5c0-0.1,0-0.2,0-0.4C168.2,224.3,167.8,222.8,166.2,222.8z M164.7,225
			c0.1-0.6,0.5-1.5,1.4-1.5c1,0,1.3,0.9,1.3,1.5H164.7z"/>
		<path class="st4" d="M170.5,221.5l-0.9,0.2v1.2h-0.8v0.7h0.8v2.7c0,0.6,0.1,1,0.4,1.3c0.2,0.2,0.6,0.4,1,0.4
			c0.4,0,0.6-0.1,0.8-0.1l0-0.7c-0.1,0-0.3,0.1-0.5,0.1c-0.5,0-0.7-0.4-0.7-1v-2.7h1.3v-0.7h-1.3V221.5z"/>
		<path class="st4" d="M179.3,220.6h-0.9v3h0c-0.2-0.4-0.7-0.8-1.5-0.8c-1.2,0-2.3,1-2.3,2.7c0,1.5,0.9,2.6,2.1,2.6
			c0.8,0,1.4-0.4,1.7-1h0l0,0.9h0.8c0-0.3,0-0.9,0-1.3V220.6z M178.4,225.8c0,0.1,0,0.3,0,0.4c-0.2,0.7-0.7,1.1-1.3,1.1
			c-1,0-1.5-0.8-1.5-1.9c0-1.1,0.6-1.9,1.5-1.9c0.7,0,1.2,0.5,1.3,1.1c0,0.1,0,0.3,0,0.4V225.8z"/>
		<path class="st4" d="M182.8,222.8c-1.5,0-2.4,1.2-2.4,2.7s0.9,2.5,2.5,2.5c0.8,0,1.3-0.2,1.7-0.3l-0.2-0.7
			c-0.3,0.1-0.7,0.3-1.4,0.3c-0.9,0-1.7-0.5-1.7-1.7h3.5c0-0.1,0-0.2,0-0.4C184.9,224.3,184.5,222.8,182.8,222.8z M181.4,225
			c0.1-0.6,0.5-1.5,1.4-1.5c1,0,1.3,0.9,1.3,1.5H181.4z"/>
		<rect x="188.2" y="220.6" class="st4" width="0.9" height="7.4"/>
		<rect x="190.7" y="222.9" class="st4" width="0.9" height="5"/>
		<path class="st4" d="M191.1,220.9c-0.3,0-0.6,0.2-0.6,0.6c0,0.3,0.2,0.6,0.5,0.6c0.4,0,0.6-0.2,0.6-0.6
			C191.7,221.2,191.5,220.9,191.1,220.9z"/>
		<path class="st4" d="M194.2,221.5l-0.9,0.2v1.2h-0.8v0.7h0.8v2.7c0,0.6,0.1,1,0.4,1.3c0.2,0.2,0.6,0.4,1,0.4
			c0.4,0,0.6-0.1,0.8-0.1l0-0.7c-0.1,0-0.3,0.1-0.5,0.1c-0.5,0-0.7-0.4-0.7-1v-2.7h1.3v-0.7h-1.3V221.5z"/>
		<path class="st4" d="M198.5,222.8c-1.5,0-2.4,1.2-2.4,2.7s0.9,2.5,2.5,2.5c0.8,0,1.3-0.2,1.7-0.3l-0.2-0.7
			c-0.3,0.1-0.7,0.3-1.4,0.3c-0.9,0-1.7-0.5-1.7-1.7h3.5c0-0.1,0-0.2,0-0.4C200.5,224.3,200.1,222.8,198.5,222.8z M197,225
			c0.1-0.6,0.5-1.5,1.4-1.5c1,0,1.3,0.9,1.3,1.5H197z"/>
		<path class="st4" d="M203.3,225c-0.7-0.2-1-0.4-1-0.9c0-0.4,0.3-0.7,0.8-0.7c0.5,0,0.8,0.2,1,0.3l0.2-0.7
			c-0.3-0.2-0.7-0.3-1.2-0.3c-1.1,0-1.7,0.7-1.7,1.5c0,0.6,0.4,1.1,1.3,1.4c0.7,0.2,0.9,0.5,0.9,0.9c0,0.4-0.3,0.7-1,0.7
			c-0.5,0-0.9-0.2-1.2-0.4l-0.2,0.7c0.4,0.2,0.9,0.3,1.4,0.3c1.2,0,1.9-0.6,1.9-1.5C204.6,225.8,204.2,225.4,203.3,225z"/>
	</g>
</g>
</svg>
