<?xml version="1.0" encoding="utf-8"?>
<!-- Generator: Adobe Illustrator 25.2.0, SVG Export Plug-In . SVG Version: 6.00 Build 0)  -->
<svg version="1.1" id="Layer_1" xmlns="http://www.w3.org/2000/svg" xmlns:xlink="http://www.w3.org/1999/xlink" x="0px" y="0px"
	 viewBox="0 0 960 384.7" style="enable-background:new 0 0 960 384.7;" xml:space="preserve">
<style type="text/css">
	.st0{fill:none;}
	.st1{fill:#0D597B;}
	.st2{opacity:0.777;fill:#78C9DC;enable-background:new    ;}
	.st3{opacity:0.777;fill:#0D597B;enable-background:new    ;}
	.st4{opacity:0.777;fill:#D9ECF0;enable-background:new    ;}
	.st5{fill:#0074A7;}
</style>
<path class="st0" d="M960,233.9C960,233.9,960.1,233.9,960,233.9L960,233.9C960.1,233.9,960,233.8,960,233.9L960,233.9z"/>
<path class="st0" d="M960.1,384.7L960.1,384.7L960.1,384.7z"/>
<polygon class="st0" points="960.1,-122.8 960.1,-703 960,-703 960,-122.8 "/>
<path class="st1" d="M850.4,106.5c-1.8,0.5-3.7,0.8-5.6,1.1l0,0C846.7,107.3,848.6,106.9,850.4,106.5L850.4,106.5
	c6.3-2.3,6.4-3.6,4.3-4.6l0,0C856.8,102.9,856.8,104.2,850.4,106.5z"/>
<path class="st1" d="M888.9,133.6c-1.3,0.3-2.6,0.5-3.9,0.5c-0.3,0-0.5,0-0.8,0c0.3,0,0.5,0,0.8,0
	C886.3,134,887.6,133.9,888.9,133.6c1.4-0.3,2.8-0.6,4.1-1l0,0c1.3-0.3,2.5-0.7,3.5-0.9l0,0c-1,0.2-2.2,0.5-3.5,0.9
	C891.6,133,890.2,133.3,888.9,133.6z"/>
<path class="st1" d="M892,130.8L892,130.8L892,130.8L892,130.8z"/>
<path class="st1" d="M891.7,130.8c-0.6-0.1-1.1-0.2-1.6-0.3c-0.6-0.1-1.2-0.1-1.7-0.1l0,0c0.6,0,1.2,0.1,1.7,0.1
	C890.6,130.6,891.1,130.7,891.7,130.8z"/>
<path class="st1" d="M958.7,233.6c-2.5-0.3-4.7-0.5-6.8-0.7l-3.2-0.2c-1.1-0.1-2.2-0.1-3.4-0.2c-2.4-0.2-5-0.4-8.1-0.9
	c-0.3,0-0.7-0.1-1-0.1l-1.4-0.4l-8.4-2.2c-1.7-0.4-3.3-0.8-5-1.2c-0.6-0.4-1-1-1.3-1.6c-0.6-1.1-0.7-2.2-2.8-3.5
	c-2.6-0.4-4.8-0.6-6.7-0.8s-3.4-0.4-4.7-0.4c-1.4-0.2-2.9-0.1-4.3,0.1c-0.1,0-0.1,0-0.1,0.1c0,0,0.1,0,0.1-0.1
	c1.4-0.2,2.9-0.3,4.3-0.1c1.3,0,2.8,0.2,4.7,0.4s4.1,0.5,6.7,0.8c2.1,1.2,2.2,2.3,2.8,3.5c0.3,0.6,0.8,1.1,1.3,1.6
	c1.7,0.4,3.3,0.8,5,1.2l8.3,2.2l1.4,0.4c0.3,0,0.7,0.1,1,0.1c3.1,0.5,5.7,0.7,8.1,0.9c1.2,0.1,2.3,0.1,3.4,0.2l3.2,0.2
	C954,233.1,956.2,233.3,958.7,233.6c0.4,0.1,0.8,0.2,1.3,0.2l0,0C959.6,233.8,959.1,233.7,958.7,233.6z"/>
<path class="st1" d="M884.6,220.8l-8.3-1c-2.8-0.4-5.5-0.5-8.3-0.8l-4.1-0.4c-1.4-0.1-2.7-0.2-4.1-0.3c-2.2,0.1-4.3,0.3-6.2,0.4
	c-1,0.1-1.9,0.2-2.8,0.3l-2.6,0.4c-1.7,0.3-3.3,0.5-4.7,0.8c-0.7,0.1-1.4,0.2-2.1,0.4l-1.9,0.5c-4.2,1.1-6.9,2.2-8.3,3.1
	c1.4-1,4.1-2,8.3-3.1l1.9-0.5c0.7-0.2,1.4-0.3,2.1-0.4c1.4-0.3,3-0.5,4.7-0.8l2.6-0.4c0.9-0.1,1.9-0.2,2.8-0.3
	c1.9-0.2,4-0.3,6.2-0.4c1.4,0.1,2.7,0.1,4.1,0.3l4.1,0.4c2.7,0.3,5.5,0.4,8.3,0.8L884.6,220.8l8.3,1.2c6.9,1.1,13.8,2.3,20.7,3.8
	h-0.1c-6.9-1.5-13.8-2.7-20.6-3.8L884.6,220.8z"/>
<path class="st1" d="M827,246.6L827,246.6c-1.2,0.3-2.4,0.5-3.6,0.8C824.6,247.2,825.8,246.9,827,246.6z"/>
<path class="st1" d="M738.7,270.7c-0.5,0.3-0.8,0.5-1.1,0.5C737.9,271.2,738.2,271,738.7,270.7L738.7,270.7z"/>
<path class="st1" d="M752.8,273.6c0.4-0.9,0.9-1.7,1.5-2.4c0.5-0.6,1.1-1.2,1.6-1.8c0.7-0.7,1.4-1.4,2.3-2.2h-0.1
	c-0.9,0.8-1.6,1.5-2.3,2.2c-0.6,0.6-1.1,1.2-1.6,1.8C753.7,271.9,753.2,272.7,752.8,273.6c-0.2,0.7,0.1,1,0.8,1
	C752.9,274.6,752.6,274.3,752.8,273.6z"/>
<path class="st1" d="M772.8,247.8l-2.1,1l-1,0.5l-1,0.5l-4.1,2.1c-1.4,0.7-2.7,1.4-4,2.2l-3.9,2.3l-3.8,2.3l-0.7,0.4l0.7-0.4
	l3.8-2.3l3.9-2.3c1.3-0.8,2.7-1.4,4-2.2l4.1-2.1l1-0.5l1-0.5L772.8,247.8c2.8-1.2,5.6-2.6,8.4-3.6c2.6-1.1,5.2-2,7.8-2.9l0,0
	c-2.6,0.9-5.2,1.8-7.8,2.9C778.4,245.3,775.6,246.6,772.8,247.8z"/>
<path class="st1" d="M746.7,268.3l1-0.5l1.1-0.5c0.8-0.4,1.5-0.8,2.4-1.2c1.6-0.8,3.4-1.8,5.2-2.8c1.9-0.9,3.9-1.9,5.9-3
	s4.3-2.1,6.5-3.2l3.4-1.6c1.1-0.6,2.4-1,3.6-1.6c3.7-1.7,7.5-3.3,11.4-4.8c0.2,0,0.3-0.1,0.5-0.1c-0.2,0-0.3,0.1-0.5,0.1
	c-3.9,1.5-7.7,3.1-11.4,4.8c-1.2,0.5-2.4,1-3.6,1.6l-3.4,1.6c-2.3,1.1-4.5,2.1-6.5,3.2c-2.1,1.1-4.1,2.1-5.9,3
	c-1.9,1-3.6,1.9-5.2,2.8c-0.8,0.4-1.6,0.8-2.4,1.2l-1.1,0.5L746.7,268.3c-1.4,0.7-2.6,1.3-3.6,1.7c-0.8,0.3-1.5,0.6-2.1,0.7
	c0.6-0.2,1.3-0.4,2.1-0.7C744.1,269.6,745.3,269,746.7,268.3z"/>
<path class="st1" d="M824.4,228.6c-1.2,0.2-2.4,0.5-3.6,0.7l-3.5,0.7c-1.2,0.2-2.3,0.4-3.4,0.7l-3.3,0.7l-3.2,0.7l-1.6,0.3l-1.5,0.4
	c-2,0.5-4,0.9-5.9,1.2l-1.4,0.3l-1.4,0.3c-0.9,0.2-1.8,0.4-2.6,0.5l0,0c0.8-0.2,1.7-0.3,2.6-0.5l1.4-0.3l1.4-0.3
	c1.9-0.4,3.8-0.8,5.9-1.2l1.5-0.4l1.6-0.3l3.2-0.7l3.3-0.7c1.1-0.3,2.3-0.4,3.4-0.7l3.5-0.7C822,229.1,823.1,228.8,824.4,228.6
	c2.4-0.4,4.9-0.8,7.5-1.3l1.6-0.2l0,0l-1.6,0.2C829.3,227.7,826.8,228.2,824.4,228.6z"/>
<path class="st1" d="M730.4,274.5c-0.5,0.5-1.1,1.1-1.7,1.7c-0.6,0.7-1.3,1.4-2,2.2c2.4-2.2,5.6-4.7,9.2-7.6l0,0l0,0
	c-0.5,0-1.3,0.3-2.7,1.4C732.3,272.7,731.5,273.5,730.4,274.5z"/>
<path class="st1" d="M837.1,142.6l0.5-1.8l0,0L837.1,142.6L837.1,142.6z"/>
<path class="st1" d="M790.7,169.1l2.1-1.2c-2.1-0.5-4.2-1.1-6.3-1.6C787.9,167.3,789.3,168.2,790.7,169.1z"/>
<path class="st1" d="M799.6,158.1c-1.5,1.2-3,2.3-4.5,3.5C796.7,160.6,798.2,159.4,799.6,158.1L799.6,158.1z"/>
<path class="st1" d="M718.1,251.1c1-1.1,2-2.3,2.9-3.6C720,248.6,719,249.8,718.1,251.1z"/>
<path class="st1" d="M708,263.3c2.5-2.5,4.8-5.1,6.9-7.9c1.1-1.4,2.2-2.9,3.2-4.3c-2.6,2.8-5.5,5.3-8.6,7.4l0,0
	C706.5,260.7,705.3,261.9,708,263.3z"/>
<path class="st1" d="M129.8,357.2c0.1-1.1,0.3-2.1,0.4-3.2c-0.9,0.4-1.8,0.8-2.8,1.2L129.8,357.2z"/>
<path class="st1" d="M753.5,329.7c-0.8,1-1.7,2.1-2.5,3.2c-0.9,1.2-1.9,2.5-2.8,3.7l-1.4,1.8c-0.4,0.6-0.9,1.2-1.3,1.8
	c-1.7,2.3-3.3,4.6-4.7,6.7c-3.2,4.9-6.3,10-9.3,15.3c-1.2,5.1-3.8,12.2-7.5,21c-0.2,0.5-0.4,1-0.6,1.5h1.8
	c4.4-9.1,8.7-18.3,13.2-27.4C742.9,347.8,748,338.6,753.5,329.7z"/>
<path class="st1" d="M267.1,255.4c0-1.9,0.2-4.1,0.2-5.8c0-1.6,0-2.6-0.5-1.8c-0.4,0.7-1.3,3.2-2.3,8c0.5,0.9,0.1,5.1,0.1,7.4
	c0,1.1,0.1,1.8,0.5,1.4c0.4-0.4,1.1-1.9,2.2-5.2C267.1,258.1,267,256.7,267.1,255.4z"/>
<path class="st1" d="M625.9,257.9c11.4-12.7,26.3-18,42.6-21.1c16.7-3.2,32.9-6.2,45.5-18.6c6.1-6.2,11.4-13.3,15.6-20.9
	c1.1-1.9,2.1-3.8,3.1-5.7c7.4-14.4,13-30.1,20-44.2c4.1-8.1,8.9-16,14.8-22.8c-5.9,6.8-10.7,14.7-14.8,22.8
	c-7.1,14.2-12.6,29.8-20,44.2c-0.5,0-1.1,0.1-1.6,0.1c-12.1,0.4-24.1-0.4-36-2.3c-11.3-1.9-22.9-5.4-34.4-2.5
	c-18.9,4.8-28.1,24.6-36.4,40.4c-10.7,20.3-25.6,40.2-48.9,46.2c-11.1,2.9-23.2,2.1-33.3-3.5c-8.8-5-15.3-13.1-20.3-21.7
	c-10.5-18-15.3-38.8-28.7-55.1c-12.1-14.8-31.4-27-50.6-17.8c-14.9,7.1-21.9,23.5-29.3,37.2c-8.4,15.6-20.4,32.3-40.7,27.9
	c-22.8-4.9-36.2-27.2-49.1-44.5c-12.3-16.5-28.8-34.6-51.4-33.3c-21.9,1.2-38.3,19.6-53.1,33.6c-19.9,18.9-40.2,37.4-59.6,56.7
	c-8.2,8.2-16.1,17.1-20.8,27.9c-3.9,8.9-5.8,18.4-8.9,27.6c-3.1,9-7.9,18.2-17.6,21.2c-11.3,3.5-22.6-3.5-30.8-10.7
	c-15.9-14-27.4-38.8-51.1-40.6c-13.1-1-22.8,6.2-30.1,15.8v25.1c1-0.5,1.9-0.9,2.9-1.3c14-5.9,29-3.3,41.8,4.4
	c15.1,9.1,27.2,23.5,44.1,29.6c17.7,6.3,36.5,0.1,51.4-10.1c16.9-11.5,28.6-28.5,40.1-45.1c19.6-28.4,45-62,83.7-60.6
	c29.5,1.1,44.4,26.5,56.1,50.1c10.5,21.1,23.1,51.4,51.9,47.9c16.5-2.1,30.4-13,47-14.7c16.2-1.7,30.1,7,40.1,19
	c11.4,13.7,17.2,30.4,24.7,46.4h100.9c4.8-10.7,7.8-22.3,10.1-33.6C601.3,319.6,603.4,283,625.9,257.9z"/>
<path class="st1" d="M813.5,150.4c0.8-0.3,1.5-0.6,2.2-1C815,149.7,814.3,150.1,813.5,150.4z"/>
<path class="st1" d="M805.2,263.5L805.2,263.5c0,0.2,0,0.4-0.1,0.6l0,0C805.2,263.9,805.2,263.7,805.2,263.5z"/>
<path class="st1" d="M13.5,377c-0.2-0.1-0.4-0.2-0.6-0.2c-0.2-0.1-0.4-0.1-0.5-0.2c-0.2-0.1-0.3-0.2-0.5-0.2c-0.1,0-0.3-0.1-0.4-0.2
	c-0.1-0.1-0.3-0.2-0.4-0.2c-0.1,0-0.2-0.1-0.3-0.2c-0.1,0-0.1-0.1-0.2-0.1c-0.1,0-0.1,0-0.1-0.1c-0.1-0.1-0.2-0.1-0.3-0.2
	s-0.1-0.1-0.2-0.2c0-0.1-0.1-0.2-0.2-0.2c-0.1-0.1-0.1-0.2-0.2-0.3c-0.1-0.1-0.2-0.2-0.2-0.3c-0.1-0.1-0.2-0.2-0.3-0.3l0,0
	c-0.1-0.1-0.2-0.2-0.3-0.3c-0.2,0.5-0.2,1.1-0.1,1.6c0.1,0.5,0.2,1,0.3,1.4s0.1,0.8,0.1,1.2c0,0.2,0,0.4,0,0.6s0,0.4,0,0.6
	c0-0.2,0.1-0.4,0.1-0.6c0-0.1,0.1-0.3,0.3-0.4c0.1-0.1,0.2-0.1,0.3-0.2c0.1,0,0.2-0.1,0.4-0.1c1.5-0.5,3.2-0.6,4.7-0.3
	c-0.2-0.1-0.5-0.2-0.7-0.3S13.7,377.1,13.5,377z"/>
<path class="st1" d="M823.2,259c-1.6,0.3-3.1,0.8-4.6,1.2C820.1,259.8,821.6,259.4,823.2,259z"/>
<polygon class="st1" points="840.7,255.3 840.7,255.3 840.6,255.3 840.6,255.3 "/>
<path class="st1" d="M841.1,253.4c0,0.2,0,0.3,0,0.5C841.1,253.8,841.1,253.6,841.1,253.4z"/>
<path class="st1" d="M771.3,275.5c20.4-12.9,43.3-21.5,67.2-25.3c0.1,0,0.1,0.1,0.2,0.1c0.5,0.3,0.9,0.7,1.3,1
	c-0.4-0.4-0.8-0.7-1.3-1c-0.1,0-0.1-0.1-0.2-0.1C814.6,254,791.8,262.6,771.3,275.5c-0.4,0.3-0.9,0.7-1.4,1
	c-0.9,0.7-1.9,1.5-2.9,2.4c0,0,0,0,0.1,0c1-0.8,2-1.6,2.9-2.3C770.4,276.2,770.9,275.8,771.3,275.5z"/>
<path class="st1" d="M841,253c0,0.1,0.1,0.3,0.1,0.4C841.1,253.2,841,253.1,841,253z"/>
<path class="st1" d="M807.4,263.4c-0.6,0.2-1.2,0.3-1.8,0.5C806.3,263.7,806.9,263.6,807.4,263.4z"/>
<path class="st1" d="M840.9,252.6C840.9,252.7,840.9,252.7,840.9,252.6C840.9,252.7,840.9,252.7,840.9,252.6z"/>
<path class="st1" d="M22.4,380.4c-2.3-1.5-4.9-2.4-7.7-2.9C16.7,378.3,19.2,379.3,22.4,380.4z"/>
<path class="st1" d="M509.7,159.5c0.2,0,0.4,0,0.6-0.1c0.2,0,0.4,0,0.6,0c0.1,0,0.2,0,0.3,0c-0.1-0.1-0.2-0.1-0.4-0.2
	c-0.4-0.1-0.8-0.3-1.3-0.3c-0.7,0.1-1.4,0.1-2.1,0.2c-0.6,0.1-1.1,0.2-1.7,0.3c0.4,0,0.9,0,1.3,0.1
	C507.9,159.6,508.8,159.6,509.7,159.5z"/>
<path class="st1" d="M6.7,374L6.7,374c0.1,0,0.2,0,0.4,0C7,374,6.8,374,6.7,374L6.7,374z"/>
<path class="st1" d="M114.2,382.6c0.5-1.4,1-2.7,1.5-4.1l0,0c0.4-1.4,0.8-2.7,1.2-4c-0.4,0.9-0.9,1.8-1.4,2.8
	c-0.5,0.9-1,1.8-1.5,2.7l-0.8,1.4l-0.9,1.3l-0.9,1.3c-0.1,0.2-0.3,0.4-0.4,0.6h2.4l0,0L114.2,382.6z"/>
<path class="st1" d="M847.6,103.2c-1.9,0.1-3.8,0-5.6-0.4l0,0C843.9,103.2,845.8,103.4,847.6,103.2z"/>
<path class="st1" d="M882.1,133.4c0.7,0.4,1.4,0.6,2.2,0.7c0.3,0,0.5,0,0.8,0c1.3,0,2.6-0.2,3.9-0.5c1.4-0.3,2.8-0.6,4.1-1
	s2.5-0.7,3.5-0.9c-1.6-0.3-3.1-0.6-4.4-0.9c0,0,0,0-0.1,0s-0.2,0-0.3-0.1c-0.6-0.1-1.1-0.2-1.6-0.3c-0.6-0.1-1.2-0.1-1.7-0.1
	C885.9,130.3,883.5,131.4,882.1,133.4z"/>
<path class="st2" d="M882.1,133.4c0.7,0.4,1.4,0.6,2.2,0.7c0.3,0,0.5,0,0.8,0c1.3,0,2.6-0.2,3.9-0.5c1.4-0.3,2.8-0.6,4.1-1
	s2.5-0.7,3.5-0.9c-1.6-0.3-3.1-0.6-4.4-0.9c0,0,0,0-0.1,0s-0.2,0-0.3-0.1c-0.6-0.1-1.1-0.2-1.6-0.3c-0.6-0.1-1.2-0.1-1.7-0.1
	C885.9,130.3,883.5,131.4,882.1,133.4z"/>
<path class="st1" d="M850.4,106.5c6.3-2.3,6.4-3.6,4.3-4.6c-1.3,0.3-2.5,0.6-3.7,0.8c-1.1,0.3-2.2,0.5-3.3,0.5
	c-1.9,0.1-3.8,0-5.6-0.4c0.3,2.1,1.8,3.4,2.8,4.8C846.7,107.3,848.6,106.9,850.4,106.5z"/>
<path class="st2" d="M850.4,106.5c6.3-2.3,6.4-3.6,4.3-4.6c-1.3,0.3-2.5,0.6-3.7,0.8c-1.1,0.3-2.2,0.5-3.3,0.5
	c-1.9,0.1-3.8,0-5.6-0.4c0.3,2.1,1.8,3.4,2.8,4.8C846.7,107.3,848.6,106.9,850.4,106.5z"/>
<path class="st1" d="M841.1,254c0-0.2,0-0.3,0-0.5v-0.1c0-0.1-0.1-0.3-0.1-0.4c0-0.1,0-0.2-0.1-0.2v-0.1c-0.2-0.4-0.5-0.8-0.9-1.2
	s-0.8-0.7-1.3-1c-0.1,0-0.1-0.1-0.2-0.1c-23.9,3.8-46.7,12.4-67.2,25.3c-0.4,0.3-0.9,0.7-1.4,1c-0.9,0.7-1.9,1.5-2.9,2.3
	c1-0.7,2-1.5,2.9-2.1c1.4-0.9,2.7-1.7,4-2.4s2.5-1.5,3.7-2c2.4-1.1,4.6-2.1,6.5-2.8c2-0.7,3.8-1.2,5.5-1.6c6.7-1.7,11-1.7,15.6-4.3
	l0,0l0,0c0,0.2,0,0.4-0.1,0.6h0.1c0.1,0,0.3-0.1,0.4-0.1c0.6-0.2,1.2-0.4,1.8-0.5c0.1,0,0.3-0.1,0.4-0.1l5.2-1.6
	c1.7-0.5,3.5-0.9,5.2-1.4c0.1,0,0.2,0,0.3-0.1c1.5-0.4,3.1-0.9,4.6-1.2c0.1,0,0.2,0,0.3-0.1c1.7-0.4,3.4-0.8,5.1-1.2
	c0.8-0.2,1.7-0.4,2.6-0.6l2.5-0.5l2.5-0.5c0.8-0.2,1.7-0.4,2.5-0.5c0.7-0.1,1.3-0.2,1.9-0.4h-0.1l0,0l0,0
	C840.9,254.8,841,254.4,841.1,254z"/>
<path class="st2" d="M841.1,254c0-0.2,0-0.3,0-0.5v-0.1c0-0.1-0.1-0.3-0.1-0.4c0-0.1,0-0.2-0.1-0.2v-0.1c-0.2-0.4-0.5-0.8-0.9-1.2
	s-0.8-0.7-1.3-1c-0.1,0-0.1-0.1-0.2-0.1c-23.9,3.8-46.7,12.4-67.2,25.3c-0.4,0.3-0.9,0.7-1.4,1c-0.9,0.7-1.9,1.5-2.9,2.3
	c1-0.7,2-1.5,2.9-2.1c1.4-0.9,2.7-1.7,4-2.4s2.5-1.5,3.7-2c2.4-1.1,4.6-2.1,6.5-2.8c2-0.7,3.8-1.2,5.5-1.6c6.7-1.7,11-1.7,15.6-4.3
	l0,0l0,0c0,0.2,0,0.4-0.1,0.6h0.1c0.1,0,0.3-0.1,0.4-0.1c0.6-0.2,1.2-0.4,1.8-0.5c0.1,0,0.3-0.1,0.4-0.1l5.2-1.6
	c1.7-0.5,3.5-0.9,5.2-1.4c0.1,0,0.2,0,0.3-0.1c1.5-0.4,3.1-0.9,4.6-1.2c0.1,0,0.2,0,0.3-0.1c1.7-0.4,3.4-0.8,5.1-1.2
	c0.8-0.2,1.7-0.4,2.6-0.6l2.5-0.5l2.5-0.5c0.8-0.2,1.7-0.4,2.5-0.5c0.7-0.1,1.3-0.2,1.9-0.4h-0.1l0,0l0,0
	C840.9,254.8,841,254.4,841.1,254z"/>
<path class="st2" d="M960,233.8C960,233.8,960.1,233.9,960,233.8l0.1-72.2H960V233.8z"/>
<path class="st1" d="M419.1,319.3c-16.6,1.8-30.6,12.7-47,14.7c-28.8,3.6-41.4-26.7-51.9-47.9c-11.7-23.6-26.7-49-56.1-50.1
	c-38.7-1.4-64.1,32.2-83.7,60.6c-11.5,16.6-23.2,33.5-40.1,45.1c-14.9,10.2-33.7,16.4-51.4,10.1c-16.9-6-29-20.5-44.1-29.6
	C32,314.5,17,311.9,3,317.8c-1,0.4-2,0.9-2.9,1.3v65.4H111c0.1-0.2,0.3-0.4,0.4-0.6l0.9-1.3l0.9-1.3l0.8-1.4
	c0.5-0.9,1.1-1.8,1.5-2.7c0.5-0.9,1-1.8,1.4-2.8c-0.3,1.3-0.8,2.7-1.2,4l0,0c-0.5,1.3-0.9,2.7-1.5,4.1l-0.8,2l0,0H484
	c-7.4-16-13.3-32.6-24.7-46.4C449.2,326.3,435.3,317.6,419.1,319.3z M6.6,374.1L6.6,374.1L6.6,374.1c0.2,0,0.4,0,0.5,0.1
	C6.9,374.1,6.8,374.1,6.6,374.1z M14.8,377.5c-1.6-0.3-3.2-0.2-4.7,0.3c-0.1,0.1-0.2,0.1-0.4,0.1c-0.1,0.1-0.2,0.2-0.3,0.2
	c-0.2,0.1-0.2,0.3-0.3,0.4C9,378.7,9,378.9,9,379.1c0-0.2,0-0.4,0-0.6s0-0.4,0-0.6c0-0.4,0-0.8-0.1-1.2c-0.1-0.4-0.2-0.9-0.3-1.4
	s-0.1-1.1,0.1-1.6c0.1,0.1,0.2,0.2,0.3,0.3l0,0c0.1,0.1,0.2,0.2,0.3,0.3c0.1,0.1,0.1,0.2,0.2,0.3c0.1,0.1,0.1,0.2,0.2,0.3
	c0.1,0.1,0.1,0.2,0.2,0.2c0.1,0.1,0.1,0.1,0.2,0.2c0.1,0.1,0.2,0.2,0.3,0.2c0,0,0.1,0,0.1,0.1c0.1,0,0.1,0.1,0.2,0.1
	c0.1,0.1,0.2,0.1,0.3,0.2c0.1,0,0.3,0.2,0.4,0.2c0.1,0.1,0.3,0.1,0.4,0.2c0.2,0.1,0.3,0.2,0.5,0.2c0.2,0.1,0.4,0.1,0.5,0.2
	c0.2,0.1,0.4,0.2,0.6,0.2c0.2,0.1,0.4,0.1,0.6,0.2S14.5,377.4,14.8,377.5c2.7,0.5,5.3,1.5,7.7,2.9C19.2,379.3,16.7,378.3,14.8,377.5
	z M129.8,357.2l-2.4-2c0.9-0.4,1.8-0.8,2.8-1.2C130.1,355,130,356.1,129.8,357.2z M265.1,264.6c-0.4,0.4-0.5-0.3-0.5-1.4
	c0-2.2,0.4-6.4-0.1-7.4c1.1-4.7,1.9-7.2,2.3-8c0.5-0.8,0.5,0.2,0.5,1.8c-0.1,1.6-0.2,3.8-0.2,5.8c-0.1,1.3,0,2.7,0.2,4
	C266.2,262.7,265.5,264.1,265.1,264.6z"/>
<path class="st2" d="M419.1,319.3c-16.6,1.8-30.6,12.7-47,14.7c-28.8,3.6-41.4-26.7-51.9-47.9c-11.7-23.6-26.7-49-56.1-50.1
	c-38.7-1.4-64.1,32.2-83.7,60.6c-11.5,16.6-23.2,33.5-40.1,45.1c-14.9,10.2-33.7,16.4-51.4,10.1c-16.9-6-29-20.5-44.1-29.6
	C32,314.5,17,311.9,3,317.8c-1,0.4-2,0.9-2.9,1.3v65.4H111c0.1-0.2,0.3-0.4,0.4-0.6l0.9-1.3l0.9-1.3l0.8-1.4
	c0.5-0.9,1.1-1.8,1.5-2.7c0.5-0.9,1-1.8,1.4-2.8c-0.3,1.3-0.8,2.7-1.2,4l0,0c-0.5,1.3-0.9,2.7-1.5,4.1l-0.8,2l0,0H484
	c-7.4-16-13.3-32.6-24.7-46.4C449.2,326.3,435.3,317.6,419.1,319.3z M6.6,374.1L6.6,374.1L6.6,374.1c0.2,0,0.4,0,0.5,0.1
	C6.9,374.1,6.8,374.1,6.6,374.1z M14.8,377.5c-1.6-0.3-3.2-0.2-4.7,0.3c-0.1,0.1-0.2,0.1-0.4,0.1c-0.1,0.1-0.2,0.2-0.3,0.2
	c-0.2,0.1-0.2,0.3-0.3,0.4C9,378.7,9,378.9,9,379.1c0-0.2,0-0.4,0-0.6s0-0.4,0-0.6c0-0.4,0-0.8-0.1-1.2c-0.1-0.4-0.2-0.9-0.3-1.4
	s-0.1-1.1,0.1-1.6c0.1,0.1,0.2,0.2,0.3,0.3l0,0c0.1,0.1,0.2,0.2,0.3,0.3c0.1,0.1,0.1,0.2,0.2,0.3c0.1,0.1,0.1,0.2,0.2,0.3
	c0.1,0.1,0.1,0.2,0.2,0.2c0.1,0.1,0.1,0.1,0.2,0.2c0.1,0.1,0.2,0.2,0.3,0.2c0,0,0.1,0,0.1,0.1c0.1,0,0.1,0.1,0.2,0.1
	c0.1,0.1,0.2,0.1,0.3,0.2c0.1,0,0.3,0.2,0.4,0.2c0.1,0.1,0.3,0.1,0.4,0.2c0.2,0.1,0.3,0.2,0.5,0.2c0.2,0.1,0.4,0.1,0.5,0.2
	c0.2,0.1,0.4,0.2,0.6,0.2c0.2,0.1,0.4,0.1,0.6,0.2S14.5,377.4,14.8,377.5c2.7,0.5,5.3,1.5,7.7,2.9C19.2,379.3,16.7,378.3,14.8,377.5
	z M129.8,357.2l-2.4-2c0.9-0.4,1.8-0.8,2.8-1.2C130.1,355,130,356.1,129.8,357.2z M265.1,264.6c-0.4,0.4-0.5-0.3-0.5-1.4
	c0-2.2,0.4-6.4-0.1-7.4c1.1-4.7,1.9-7.2,2.3-8c0.5-0.8,0.5,0.2,0.5,1.8c-0.1,1.6-0.2,3.8-0.2,5.8c-0.1,1.3,0,2.7,0.2,4
	C266.2,262.7,265.5,264.1,265.1,264.6z"/>
<path class="st1" d="M661.7,377.8c2.8-8.2,6.1-16.2,9.8-24.1l0.9-1c6.7-7.5,11.8-13,16.2-17.9c0.4-0.5,0.8-0.9,1.2-1.3
	c4.1-4.5,7.7-8.6,11.9-13.7c2.3-2.8,4.8-5.9,7.8-9.3c2.9-3.5,6.3-7.4,10.5-11.9c4.8-5.2,10-10.1,15.3-14.8c0.8-0.7,1.6-1.4,2.4-2
	l2.5-2.1c1.7-1.4,3.5-2.8,5.4-4.2s3.9-2.8,6-4.2l3.2-2.1l3.4-2c0,0,0,0-0.1,0h0.1c-0.9,0.8-1.7,1.6-2.3,2.2
	c-0.6,0.6-1.1,1.2-1.6,1.8c-0.6,0.7-1.2,1.5-1.5,2.4c-0.2,0.7,0.1,1,0.8,1c0.4,0,0.9-0.1,1.6-0.2c1-0.3,2.1-0.6,3.1-1
	c1.2-0.4,2.5-0.9,3.9-1.5c1.4-0.5,2.8-1.2,4.3-1.7l4.4-1.5l1.1-0.4c16-9.5,33.4-16.5,51.5-20.8c1.2-0.3,2.4-0.6,3.6-0.8
	c-2.5-0.4-5.3-0.6-8.3-0.8c-1.6-0.1-3.2-0.1-4.9-0.1h-2.6H810l-1.3,0.1c-3.8,0.2-7.7,0.6-11.5,1.2l-3,0.5l-1.5,0.3l-1.5,0.3
	c-1.1,0.2-2.1,0.5-3.2,0.7c-0.2,0-0.3,0.1-0.5,0.1c-3.9,1.5-7.7,3.1-11.4,4.8c-1.2,0.5-2.4,1-3.6,1.6l-3.4,1.6
	c-2.3,1.1-4.5,2.1-6.5,3.2c-2.1,1.1-4.1,2.1-5.9,3c-1.9,1-3.6,1.9-5.2,2.8c-0.8,0.4-1.6,0.8-2.4,1.2l-1.1,0.5l-1,0.5
	c-1.3,0.7-2.5,1.3-3.6,1.7c-0.8,0.3-1.5,0.6-2.1,0.7c-1,0.3-1.8,0.3-2.2,0c-0.5,0.3-0.8,0.5-1.1,0.5c-0.3,0.1-0.5,0-0.7,0
	c-0.4-0.1-0.6-0.4-1.1-0.4c-3.5,2.9-6.7,5.4-9.2,7.6c0.7-0.8,1.4-1.6,2-2.2c0.6-0.7,1.2-1.2,1.7-1.7c1.1-1,1.9-1.7,2.7-2.3
	c1.4-1.1,2.2-1.4,2.7-1.4l0.4-0.4l0.7-0.6l0.7-0.6l1.5-1.1l3.1-2.3l1.6-1.2l0.8-0.6l0.9-0.6l3.5-2.3l3-2l0.7-0.4l3.8-2.3l3.9-2.3
	c1.3-0.8,2.7-1.4,4-2.2l4.1-2.1l1-0.5l1-0.5l2.1-1c2.8-1.3,5.6-2.6,8.4-3.6c2.6-1.1,5.2-2,7.8-2.9c0.2-0.3,0.3-0.6,0.5-0.9l1.1-1.8
	l2.2-3.6l0,0l0,0c0.9-0.2,1.7-0.3,2.6-0.5l1.4-0.3l1.4-0.3c1.9-0.4,3.8-0.8,5.9-1.2l1.5-0.4l1.6-0.3l3.2-0.7l3.3-0.7
	c1.1-0.3,2.3-0.4,3.4-0.7l3.5-0.7c1.2-0.2,2.4-0.5,3.6-0.7c2.4-0.4,4.9-0.8,7.5-1.3l1.6-0.2c-0.7-0.1-1.3-0.1-1.9-0.2
	c-1.8-0.3-2.2-1.1-1-2.1c0.2-0.1,0.3-0.3,0.5-0.4c1.4-1,4.1-2,8.3-3.1l1.9-0.5c0.7-0.2,1.4-0.3,2.1-0.4c1.4-0.3,3-0.5,4.7-0.8
	l2.6-0.4c0.9-0.1,1.9-0.2,2.8-0.3c1.9-0.2,4-0.3,6.2-0.4c1.4,0.1,2.7,0.1,4.1,0.3l4.1,0.4c2.7,0.3,5.5,0.4,8.3,0.8l8.3,1l8.3,1.2
	c6.9,1.1,13.7,2.3,20.6,3.8c-2.1-0.8-5-1.6-7.4-2.4c-3-0.9-5.3-1.6-4.8-2c0,0,0.1,0,0.1-0.1c1.4-0.2,2.9-0.3,4.3-0.1
	c1.3,0,2.8,0.2,4.7,0.4s4.1,0.5,6.7,0.8c2.1,1.2,2.2,2.3,2.8,3.5c0.3,0.6,0.8,1.1,1.3,1.6c1.7,0.4,3.3,0.8,5,1.2l8.4,2.2l1.4,0.4
	c0.3,0,0.7,0.1,1,0.1c3.1,0.5,5.7,0.7,8.1,0.9c1.2,0.1,2.3,0.1,3.4,0.2l3.2,0.2c2.1,0.2,4.3,0.4,6.8,0.7c0.4,0.1,0.8,0.2,1.3,0.2
	v-72.2c-11,1.6-22,3.8-33.2,3.5c-16.8-0.4-31.6-8.8-44.9-18.5C859,130,836,104.2,805.9,104.6c-16.4,0.2-29,8.3-38.7,19.6
	c-5.9,6.8-10.7,14.7-14.8,22.8c-7.1,14.2-12.6,29.8-20,44.2c-1,1.9-2,3.9-3.1,5.7c-4.2,7.7-9.5,14.7-15.6,20.9
	c-12.6,12.4-28.7,15.4-45.5,18.6c-16.4,3.1-31.3,8.4-42.6,21.1c-22.5,25.2-24.6,61.7-31,93.3c-2.3,11.3-5.3,22.9-10.1,33.6H660
	c0-0.1,0-0.1,0-0.2C660.4,382.2,661,380,661.7,377.8z M837.5,140.8L837.5,140.8C837.6,140.8,837.6,140.8,837.5,140.8l-0.5,1.8l0,0
	l0,0C835.5,143,836,142.2,837.5,140.8z M815.7,149.4c-0.7,0.4-1.4,0.8-2.2,1C814.3,150.1,815,149.7,815.7,149.4z M799.6,158.1
	L799.6,158.1c-1.4,1.3-2.9,2.4-4.5,3.5C796.6,160.4,798.1,159.3,799.6,158.1z M790.7,169.1c-1.4-0.9-2.8-1.8-4.2-2.7
	c2.1,0.5,4.3,1,6.3,1.6L790.7,169.1z M709.5,258.5L709.5,258.5c3.1-2.2,6-4.7,8.6-7.4c1-1.3,1.9-2.5,2.9-3.6
	c-0.9,1.3-1.8,2.5-2.9,3.6c-1,1.4-2.1,2.8-3.2,4.3c-2.1,2.8-4.4,5.5-6.9,7.9C705.3,261.9,706.5,260.7,709.5,258.5z"/>
<path class="st2" d="M661.7,377.8c2.8-8.2,6.1-16.2,9.8-24.1l0.9-1c6.7-7.5,11.8-13,16.2-17.9c0.4-0.5,0.8-0.9,1.2-1.3
	c4.1-4.5,7.7-8.6,11.9-13.7c2.3-2.8,4.8-5.9,7.8-9.3c2.9-3.5,6.3-7.4,10.5-11.9c4.8-5.2,10-10.1,15.3-14.8c0.8-0.7,1.6-1.4,2.4-2
	l2.5-2.1c1.7-1.4,3.5-2.8,5.4-4.2s3.9-2.8,6-4.2l3.2-2.1l3.4-2c0,0,0,0-0.1,0h0.1c-0.9,0.8-1.7,1.6-2.3,2.2
	c-0.6,0.6-1.1,1.2-1.6,1.8c-0.6,0.7-1.2,1.5-1.5,2.4c-0.2,0.7,0.1,1,0.8,1c0.4,0,0.9-0.1,1.6-0.2c1-0.3,2.1-0.6,3.1-1
	c1.2-0.4,2.5-0.9,3.9-1.5c1.4-0.5,2.8-1.2,4.3-1.7l4.4-1.5l1.1-0.4c16-9.5,33.4-16.5,51.5-20.8c1.2-0.3,2.4-0.6,3.6-0.8
	c-2.5-0.4-5.3-0.6-8.3-0.8c-1.6-0.1-3.2-0.1-4.9-0.1h-2.6H810l-1.3,0.1c-3.8,0.2-7.7,0.6-11.5,1.2l-3,0.5l-1.5,0.3l-1.5,0.3
	c-1.1,0.2-2.1,0.5-3.2,0.7c-0.2,0-0.3,0.1-0.5,0.1c-3.9,1.5-7.7,3.1-11.4,4.8c-1.2,0.5-2.4,1-3.6,1.6l-3.4,1.6
	c-2.3,1.1-4.5,2.1-6.5,3.2c-2.1,1.1-4.1,2.1-5.9,3c-1.9,1-3.6,1.9-5.2,2.8c-0.8,0.4-1.6,0.8-2.4,1.2l-1.1,0.5l-1,0.5
	c-1.3,0.7-2.5,1.3-3.6,1.7c-0.8,0.3-1.5,0.6-2.1,0.7c-1,0.3-1.8,0.3-2.2,0c-0.5,0.3-0.8,0.5-1.1,0.5c-0.3,0.1-0.5,0-0.7,0
	c-0.4-0.1-0.6-0.4-1.1-0.4c-3.5,2.9-6.7,5.4-9.2,7.6c0.7-0.8,1.4-1.6,2-2.2c0.6-0.7,1.2-1.2,1.7-1.7c1.1-1,1.9-1.7,2.7-2.3
	c1.4-1.1,2.2-1.4,2.7-1.4l0.4-0.4l0.7-0.6l0.7-0.6l1.5-1.1l3.1-2.3l1.6-1.2l0.8-0.6l0.9-0.6l3.5-2.3l3-2l0.7-0.4l3.8-2.3l3.9-2.3
	c1.3-0.8,2.7-1.4,4-2.2l4.1-2.1l1-0.5l1-0.5l2.1-1c2.8-1.3,5.6-2.6,8.4-3.6c2.6-1.1,5.2-2,7.8-2.9c0.2-0.3,0.3-0.6,0.5-0.9l1.1-1.8
	l2.2-3.6l0,0l0,0c0.9-0.2,1.7-0.3,2.6-0.5l1.4-0.3l1.4-0.3c1.9-0.4,3.8-0.8,5.9-1.2l1.5-0.4l1.6-0.3l3.2-0.7l3.3-0.7
	c1.1-0.3,2.3-0.4,3.4-0.7l3.5-0.7c1.2-0.2,2.4-0.5,3.6-0.7c2.4-0.4,4.9-0.8,7.5-1.3l1.6-0.2c-0.7-0.1-1.3-0.1-1.9-0.2
	c-1.8-0.3-2.2-1.1-1-2.1c0.2-0.1,0.3-0.3,0.5-0.4c1.4-1,4.1-2,8.3-3.1l1.9-0.5c0.7-0.2,1.4-0.3,2.1-0.4c1.4-0.3,3-0.5,4.7-0.8
	l2.6-0.4c0.9-0.1,1.9-0.2,2.8-0.3c1.9-0.2,4-0.3,6.2-0.4c1.4,0.1,2.7,0.1,4.1,0.3l4.1,0.4c2.7,0.3,5.5,0.4,8.3,0.8l8.3,1l8.3,1.2
	c6.9,1.1,13.7,2.3,20.6,3.8c-2.1-0.8-5-1.6-7.4-2.4c-3-0.9-5.3-1.6-4.8-2c0,0,0.1,0,0.1-0.1c1.4-0.2,2.9-0.3,4.3-0.1
	c1.3,0,2.8,0.2,4.7,0.4s4.1,0.5,6.7,0.8c2.1,1.2,2.2,2.3,2.8,3.5c0.3,0.6,0.8,1.1,1.3,1.6c1.7,0.4,3.3,0.8,5,1.2l8.4,2.2l1.4,0.4
	c0.3,0,0.7,0.1,1,0.1c3.1,0.5,5.7,0.7,8.1,0.9c1.2,0.1,2.3,0.1,3.4,0.2l3.2,0.2c2.1,0.2,4.3,0.4,6.8,0.7c0.4,0.1,0.8,0.2,1.3,0.2
	v-72.2c-11,1.6-22,3.8-33.2,3.5c-16.8-0.4-31.6-8.8-44.9-18.5C859,130,836,104.2,805.9,104.6c-16.4,0.2-29,8.3-38.7,19.6
	c-5.9,6.8-10.7,14.7-14.8,22.8c-7.1,14.2-12.6,29.8-20,44.2c-1,1.9-2,3.9-3.1,5.7c-4.2,7.7-9.5,14.7-15.6,20.9
	c-12.6,12.4-28.7,15.4-45.5,18.6c-16.4,3.1-31.3,8.4-42.6,21.1c-22.5,25.2-24.6,61.7-31,93.3c-2.3,11.3-5.3,22.9-10.1,33.6H660
	c0-0.1,0-0.1,0-0.2C660.4,382.2,661,380,661.7,377.8z M837.5,140.8L837.5,140.8C837.6,140.8,837.6,140.8,837.5,140.8l-0.5,1.8l0,0
	l0,0C835.5,143,836,142.2,837.5,140.8z M815.7,149.4c-0.7,0.4-1.4,0.8-2.2,1C814.3,150.1,815,149.7,815.7,149.4z M799.6,158.1
	L799.6,158.1c-1.4,1.3-2.9,2.4-4.5,3.5C796.6,160.4,798.1,159.3,799.6,158.1z M790.7,169.1c-1.4-0.9-2.8-1.8-4.2-2.7
	c2.1,0.5,4.3,1,6.3,1.6L790.7,169.1z M709.5,258.5L709.5,258.5c3.1-2.2,6-4.7,8.6-7.4c1-1.3,1.9-2.5,2.9-3.6
	c-0.9,1.3-1.8,2.5-2.9,3.6c-1,1.4-2.1,2.8-3.2,4.3c-2.1,2.8-4.4,5.5-6.9,7.9C705.3,261.9,706.5,260.7,709.5,258.5z"/>
<path class="st1" d="M30.1,278.4c23.7,1.8,35.3,26.6,51.1,40.6c8.2,7.2,19.5,14.2,30.8,10.7c9.7-3,14.5-12.3,17.6-21.2
	c3.2-9.1,5.1-18.7,8.9-27.6c4.7-10.7,12.6-19.7,20.8-27.9c19.5-19.3,39.8-37.9,59.6-56.7c14.8-14.1,31.2-32.4,53.1-33.6
	c22.5-1.3,39,16.8,51.4,33.3c12.9,17.3,26.2,39.6,49.1,44.5c20.3,4.4,32.3-12.3,40.7-27.9c7.4-13.7,14.4-30.1,29.3-37.2
	c19.2-9.2,38.5,3,50.6,17.8c13.4,16.3,18.3,37.1,28.7,55.1c5,8.6,11.4,16.7,20.3,21.7c10.1,5.7,22.2,6.4,33.3,3.5
	c23.3-6.1,38.2-26,48.9-46.2c8.3-15.7,17.5-35.5,36.4-40.4c11.5-2.9,23.1,0.6,34.4,2.5c11.9,1.9,24,2.7,36,2.3c0.5,0,1.1,0,1.6-0.1
	c7.4-14.4,13-30.1,20-44.2c4.1-8.1,8.9-16.1,14.8-22.8c9.8-11.3,22.3-19.4,38.8-19.6c30.1-0.4,53.2,25.3,75.6,41.8
	c13.2,9.7,28.1,18.1,44.9,18.5c11.2,0.3,22.2-1.9,33.2-3.5L960.1,0H0.1L0,294.2C7.3,284.6,17,277.4,30.1,278.4z M888.3,130.3
	L888.3,130.3L888.3,130.3c0.6,0,1.2,0.1,1.8,0.1c0.5,0.1,1.1,0.2,1.6,0.3c0.1,0,0.2,0,0.3,0l0,0l0,0c0,0,0,0,0.1,0
	c1.3,0.3,2.7,0.6,4.4,0.9l0,0l0,0c-1,0.2-2.2,0.5-3.5,0.9l0,0c-1.3,0.3-2.7,0.7-4.1,1c-1.3,0.3-2.6,0.5-3.9,0.5c-0.3,0-0.5,0-0.8,0
	c-0.8-0.1-1.5-0.3-2.2-0.7C883.5,131.4,885.9,130.3,888.3,130.3z M842,102.8c1.8,0.4,3.7,0.5,5.6,0.4c1.1-0.1,2.2-0.3,3.3-0.5
	c1.2-0.2,2.5-0.5,3.7-0.8l0,0l0,0c2.1,1,2,2.3-4.3,4.6l0,0c-1.9,0.5-3.7,0.9-5.6,1.1l0,0l0,0C843.8,106.2,842.3,104.9,842,102.8
	L842,102.8L842,102.8z M507.4,159.1c0.7-0.1,1.4-0.2,2.1-0.2c0.4,0.1,0.9,0.2,1.3,0.3c0.1,0.1,0.3,0.1,0.4,0.2c-0.1,0-0.2,0-0.3,0
	c-0.2,0-0.4,0-0.6,0s-0.4,0-0.6,0.1c-0.9,0-1.8,0-2.7,0c-0.4,0-0.9-0.1-1.3-0.1C506.2,159.3,506.8,159.2,507.4,159.1z"/>
<path class="st0" d="M885,134.1c1.3,0,2.6-0.2,3.9-0.5c1.4-0.3,2.8-0.6,4.1-1l0,0c1.3-0.3,2.5-0.7,3.5-0.9l0,0l0,0
	c-1.6-0.3-3.1-0.6-4.4-0.9c0,0,0,0-0.1,0l0,0l0,0c-0.1,0-0.2,0-0.3,0c-0.6-0.1-1.1-0.2-1.6-0.3c-0.6-0.1-1.2-0.1-1.7-0.1l0,0l0,0
	c-2.4-0.1-4.8,1-6.2,3c0.7,0.4,1.4,0.6,2.2,0.7C884.5,134.1,884.8,134.1,885,134.1z"/>
<path class="st0" d="M509.7,159.5c0.2,0,0.4,0,0.6-0.1c0.2,0,0.4,0,0.6,0c0.1,0,0.2,0,0.3,0c-0.1-0.1-0.2-0.1-0.4-0.2
	c-0.4-0.1-0.8-0.3-1.3-0.3c-0.7,0.1-1.4,0.1-2.1,0.2c-0.6,0.1-1.1,0.2-1.7,0.3c0.4,0,0.9,0,1.3,0.1
	C507.9,159.6,508.8,159.6,509.7,159.5z"/>
<path class="st0" d="M844.8,107.6L844.8,107.6L844.8,107.6c1.9-0.3,3.8-0.7,5.6-1.1l0,0c6.3-2.3,6.4-3.6,4.3-4.6l0,0l0,0
	c-1.3,0.3-2.5,0.6-3.7,0.8c-1.1,0.3-2.2,0.5-3.3,0.5c-1.9,0.1-3.8,0-5.6-0.4l0,0l0,0C842.3,104.9,843.8,106.2,844.8,107.6z"/>
<path class="st1" d="M882.1,133.4c1.4-2,3.8-3.1,6.2-3l0,0C885.9,130.3,883.5,131.4,882.1,133.4c0.7,0.4,1.4,0.6,2.2,0.7
	C883.5,134,882.8,133.7,882.1,133.4z"/>
<path class="st2" d="M882.1,133.4c1.4-2,3.8-3.1,6.2-3l0,0C885.9,130.3,883.5,131.4,882.1,133.4c0.7,0.4,1.4,0.6,2.2,0.7
	C883.5,134,882.8,133.7,882.1,133.4z"/>
<path class="st3" d="M882.1,133.4c1.4-2,3.8-3.1,6.2-3l0,0C885.9,130.3,883.5,131.4,882.1,133.4c0.7,0.4,1.4,0.6,2.2,0.7
	C883.5,134,882.8,133.7,882.1,133.4z"/>
<path class="st1" d="M892,130.8c-0.1,0-0.2,0-0.3,0C891.8,130.8,891.9,130.8,892,130.8L892,130.8z"/>
<path class="st2" d="M892,130.8c-0.1,0-0.2,0-0.3,0C891.8,130.8,891.9,130.8,892,130.8L892,130.8z"/>
<path class="st3" d="M892,130.8c-0.1,0-0.2,0-0.3,0C891.8,130.8,891.9,130.8,892,130.8L892,130.8z"/>
<path class="st1" d="M896.4,131.7c-1.6-0.3-3.1-0.6-4.4-0.9C893.3,131.1,894.8,131.4,896.4,131.7L896.4,131.7z"/>
<path class="st2" d="M896.4,131.7c-1.6-0.3-3.1-0.6-4.4-0.9C893.3,131.1,894.8,131.4,896.4,131.7L896.4,131.7z"/>
<path class="st3" d="M896.4,131.7c-1.6-0.3-3.1-0.6-4.4-0.9C893.3,131.1,894.8,131.4,896.4,131.7L896.4,131.7z"/>
<path class="st1" d="M854.7,101.9L854.7,101.9c-1.3,0.3-2.5,0.6-3.7,0.8c-1.1,0.3-2.2,0.5-3.3,0.5c1.1-0.1,2.2-0.3,3.3-0.5
	C852.2,102.5,853.4,102.2,854.7,101.9z"/>
<path class="st2" d="M854.7,101.9L854.7,101.9c-1.3,0.3-2.5,0.6-3.7,0.8c-1.1,0.3-2.2,0.5-3.3,0.5c1.1-0.1,2.2-0.3,3.3-0.5
	C852.2,102.5,853.4,102.2,854.7,101.9z"/>
<path class="st3" d="M854.7,101.9L854.7,101.9c-1.3,0.3-2.5,0.6-3.7,0.8c-1.1,0.3-2.2,0.5-3.3,0.5c1.1-0.1,2.2-0.3,3.3-0.5
	C852.2,102.5,853.4,102.2,854.7,101.9z"/>
<path class="st1" d="M844.8,107.6L844.8,107.6c-1-1.4-2.5-2.7-2.8-4.8l0,0C842.3,104.9,843.8,106.2,844.8,107.6z"/>
<path class="st2" d="M844.8,107.6L844.8,107.6c-1-1.4-2.5-2.7-2.8-4.8l0,0C842.3,104.9,843.8,106.2,844.8,107.6z"/>
<path class="st3" d="M844.8,107.6L844.8,107.6c-1-1.4-2.5-2.7-2.8-4.8l0,0C842.3,104.9,843.8,106.2,844.8,107.6z"/>
<path class="st2" d="M960,161.6C960,161.6,960.1,161.6,960,161.6L960,161.6C960.1,161.6,960,161.6,960,161.6L960,161.6z"/>
<path class="st3" d="M960,161.6C960,161.6,960.1,161.6,960,161.6L960,161.6C960.1,161.6,960,161.6,960,161.6L960,161.6z"/>
<path class="st1" d="M926.8,165.1c-16.8-0.4-31.6-8.8-44.9-18.5c-22.5-16.4-45.5-42.2-75.6-41.8c-16.4,0.2-29,8.3-38.8,19.6
	c9.8-11.3,22.3-19.4,38.7-19.6c30.1-0.4,53.2,25.4,75.6,41.8C895.2,156.3,910,164.7,926.8,165.1c11.2,0.3,22.2-1.9,33.2-3.5l0,0
	C949,163.2,938,165.4,926.8,165.1z"/>
<path class="st2" d="M926.8,165.1c-16.8-0.4-31.6-8.8-44.9-18.5c-22.5-16.4-45.5-42.2-75.6-41.8c-16.4,0.2-29,8.3-38.8,19.6
	c9.8-11.3,22.3-19.4,38.7-19.6c30.1-0.4,53.2,25.4,75.6,41.8C895.2,156.3,910,164.7,926.8,165.1c11.2,0.3,22.2-1.9,33.2-3.5l0,0
	C949,163.2,938,165.4,926.8,165.1z"/>
<path class="st3" d="M926.8,165.1c-16.8-0.4-31.6-8.8-44.9-18.5c-22.5-16.4-45.5-42.2-75.6-41.8c-16.4,0.2-29,8.3-38.8,19.6
	c9.8-11.3,22.3-19.4,38.7-19.6c30.1-0.4,53.2,25.4,75.6,41.8C895.2,156.3,910,164.7,926.8,165.1c11.2,0.3,22.2-1.9,33.2-3.5l0,0
	C949,163.2,938,165.4,926.8,165.1z"/>
<path class="st4" d="M960.1,233.9C960.1,233.9,960,233.9,960.1,233.9L960,384.7h0.1l0,0V233.9z"/>
<path class="st1" d="M958.7,233.6c-2.5-0.3-4.7-0.5-6.8-0.7l-3.2-0.2c-1.1-0.1-2.2-0.1-3.4-0.2c-2.4-0.2-5-0.4-8.1-0.9
	c-0.3,0-0.7-0.1-1-0.1l-1.4-0.4l-8.3-2.2c-1.7-0.4-3.3-0.8-5-1.2c-0.6-0.4-1-1-1.3-1.6c-0.6-1.1-0.7-2.2-2.8-3.5
	c-2.6-0.3-4.8-0.6-6.7-0.8s-3.4-0.4-4.7-0.4c-1.4-0.2-2.9-0.1-4.3,0.1c-0.1,0-0.1,0-0.1,0.1c-0.5,0.4,1.8,1.1,4.8,2
	c2.4,0.7,5.3,1.6,7.4,2.4h-0.1h0.1c-6.9-1.5-13.8-2.7-20.7-3.8l-8.3-1.2l-8.3-1c-2.8-0.4-5.5-0.5-8.3-0.8l-4.1-0.4
	c-1.4-0.1-2.7-0.2-4.1-0.3c-2.2,0.1-4.3,0.3-6.2,0.4c-1,0.1-1.9,0.2-2.8,0.3l-2.6,0.4c-1.7,0.3-3.3,0.5-4.7,0.8
	c-0.7,0.1-1.4,0.3-2.1,0.4l-1.9,0.5c-4.2,1.1-6.9,2.2-8.3,3.1c-0.2,0.1-0.4,0.3-0.5,0.4c-1.2,1-0.8,1.8,1,2.1
	c0.5,0.1,1.2,0.2,1.9,0.2l0,0l0,0l-1.6,0.2c-2.5,0.5-5,0.9-7.5,1.3c-1.2,0.2-2.4,0.5-3.6,0.7l-3.5,0.7c-1.2,0.2-2.3,0.4-3.4,0.7
	l-3.3,0.7l-3.2,0.7l-1.6,0.3l-1.5,0.4c-2,0.5-4,0.9-5.9,1.2l-1.4,0.3l-1.4,0.3c-0.9,0.2-1.8,0.4-2.6,0.5l-2.2,3.6l-1.1,1.8
	c-0.2,0.3-0.3,0.6-0.5,0.9l0,0l0,0c-2.6,0.9-5.2,1.8-7.8,2.9c-2.9,1-5.6,2.4-8.4,3.6l-2.1,1l-1,0.5l-1,0.5l-4.1,2.1
	c-1.4,0.7-2.7,1.4-4,2.2l-3.9,2.3l-3.8,2.3l-0.7,0.4l-3,2l-3.5,2.3l-0.9,0.6l-0.8,0.6l-1.6,1.2l-3.1,2.3l-1.5,1.1l-0.7,0.6l-0.7,0.6
	l-0.5,0.4l0,0l0,0l0,0l0,0l0,0c0.5,0,0.8,0.3,1.2,0.4c0.2,0.1,0.4,0.1,0.6,0c0.3-0.1,0.6-0.2,1.1-0.5l0,0l0,0c0.4,0.3,1.2,0.3,2.2,0
	c0.6-0.2,1.3-0.4,2.1-0.7c1.1-0.4,2.3-1,3.6-1.7l1-0.5l1.1-0.5c0.8-0.4,1.5-0.8,2.4-1.2c1.6-0.8,3.4-1.8,5.2-2.8
	c1.9-0.9,3.9-1.9,5.9-3s4.3-2.1,6.5-3.2l3.4-1.6c1.1-0.6,2.4-1,3.6-1.6c3.7-1.7,7.5-3.3,11.4-4.8c0.2,0,0.3-0.1,0.5-0.1
	c1.1-0.3,2.2-0.5,3.2-0.7l1.5-0.3l1.5-0.3l3-0.5c3.8-0.6,7.6-1,11.5-1.2l1.3-0.1h1.3h2.6c1.7,0,3.3,0,4.9,0.1c3,0.2,5.8,0.5,8.3,0.8
	l0,0l0,0c-1.2,0.3-2.4,0.5-3.6,0.8c-18.1,4.3-35.4,11.3-51.4,20.8l-1.1,0.4l-4.4,1.6c-1.5,0.6-2.9,1.2-4.3,1.7
	c-1.4,0.5-2.7,1.1-3.9,1.5c-1,0.4-2,0.7-3.1,1c-0.7,0.2-1.2,0.3-1.6,0.2c-0.7,0-1-0.3-0.8-1c0.4-0.9,0.9-1.7,1.5-2.4
	c0.5-0.6,1.1-1.2,1.6-1.8c0.7-0.6,1.4-1.4,2.3-2.2l-3.3,2l-3.2,2.1c-2.1,1.4-4.1,2.8-6,4.2s-3.7,2.8-5.4,4.2l-2.5,2.1
	c-0.8,0.7-1.6,1.4-2.4,2c-5.4,4.7-10.5,9.6-15.3,14.8c-4.2,4.5-7.5,8.4-10.5,11.9s-5.4,6.6-7.8,9.3c-4.2,5-7.8,9.2-11.9,13.7
	c-0.4,0.4-0.8,0.9-1.2,1.3c-4.4,4.8-9.5,10.3-16.2,17.9l-0.9,1c-3.7,7.8-7,15.9-9.8,24.1c-0.7,2.2-1.3,4.4-1.7,6.7
	c0,0.1,0,0.1,0,0.2h63.4c0.2-0.5,0.4-1,0.6-1.5c3.7-8.7,6.3-15.8,7.5-21c3.1-5.3,6.2-10.4,9.3-15.3c1.5-2.1,3.1-4.4,4.7-6.7
	c0.4-0.6,0.9-1.2,1.3-1.8l1.4-1.8c0.9-1.3,1.8-2.5,2.8-3.7c0.8-1.1,1.7-2.1,2.5-3.2c-5.5,8.9-10.6,18.1-15.1,27.5
	c-4.5,9.1-8.8,18.3-13.2,27.4H960v-151C959.6,233.8,959.1,233.7,958.7,233.6z M840.7,255.3L840.7,255.3L840.7,255.3
	c-0.7,0.1-1.3,0.2-2,0.4c-0.8,0.1-1.7,0.3-2.5,0.5l-2.5,0.5l-2.5,0.5c-0.9,0.2-1.7,0.3-2.6,0.6c-1.7,0.4-3.4,0.8-5.1,1.2
	c-0.1,0-0.2,0-0.3,0.1c-1.6,0.3-3.1,0.8-4.6,1.2c-0.1,0-0.2,0-0.3,0.1c-1.7,0.5-3.5,0.9-5.2,1.4l-5.2,1.6c-0.1,0-0.3,0.1-0.4,0.1
	c-0.6,0.2-1.2,0.3-1.8,0.5c-0.1,0-0.3,0.1-0.4,0.1h-0.1l0,0l0,0c0.1-0.2,0.1-0.4,0.1-0.6c-4.6,2.6-8.9,2.6-15.6,4.3
	c-1.7,0.4-3.5,1-5.5,1.6c-2,0.8-4.1,1.7-6.5,2.8c-1.2,0.6-2.4,1.3-3.7,2c-1.3,0.8-2.6,1.5-4,2.4c-1,0.7-2,1.4-3,2.2c0,0,0,0,0.1,0
	c0,0,0,0-0.1,0c1.1-0.8,2-1.6,2.9-2.4c0.5-0.4,0.9-0.7,1.4-1c20.4-12.9,43.3-21.5,67.2-25.3c0.1,0,0.1,0.1,0.2,0.1
	c0.5,0.3,0.9,0.7,1.3,1c0.4,0.4,0.7,0.8,0.9,1.2v0.1c0,0.1,0,0.2,0.1,0.2c0,0.1,0.1,0.3,0.1,0.4v0.1c0,0.2,0,0.3,0,0.5
	c-0.1,0.4-0.2,0.9-0.5,1.3L840.7,255.3z"/>
<path class="st4" d="M958.7,233.6c-2.5-0.3-4.7-0.5-6.8-0.7l-3.2-0.2c-1.1-0.1-2.2-0.1-3.4-0.2c-2.4-0.2-5-0.4-8.1-0.9
	c-0.3,0-0.7-0.1-1-0.1l-1.4-0.4l-8.3-2.2c-1.7-0.4-3.3-0.8-5-1.2c-0.6-0.4-1-1-1.3-1.6c-0.6-1.1-0.7-2.2-2.8-3.5
	c-2.6-0.3-4.8-0.6-6.7-0.8s-3.4-0.4-4.7-0.4c-1.4-0.2-2.9-0.1-4.3,0.1c-0.1,0-0.1,0-0.1,0.1c-0.5,0.4,1.8,1.1,4.8,2
	c2.4,0.7,5.3,1.6,7.4,2.4h-0.1h0.1c-6.9-1.5-13.8-2.7-20.7-3.8l-8.3-1.2l-8.3-1c-2.8-0.4-5.5-0.5-8.3-0.8l-4.1-0.4
	c-1.4-0.1-2.7-0.2-4.1-0.3c-2.2,0.1-4.3,0.3-6.2,0.4c-1,0.1-1.9,0.2-2.8,0.3l-2.6,0.4c-1.7,0.3-3.3,0.5-4.7,0.8
	c-0.7,0.1-1.4,0.3-2.1,0.4l-1.9,0.5c-4.2,1.1-6.9,2.2-8.3,3.1c-0.2,0.1-0.4,0.3-0.5,0.4c-1.2,1-0.8,1.8,1,2.1
	c0.5,0.1,1.2,0.2,1.9,0.2l0,0l0,0l-1.6,0.2c-2.5,0.5-5,0.9-7.5,1.3c-1.2,0.2-2.4,0.5-3.6,0.7l-3.5,0.7c-1.2,0.2-2.3,0.4-3.4,0.7
	l-3.3,0.7l-3.2,0.7l-1.6,0.3l-1.5,0.4c-2,0.5-4,0.9-5.9,1.2l-1.4,0.3l-1.4,0.3c-0.9,0.2-1.8,0.4-2.6,0.5l-2.2,3.6l-1.1,1.8
	c-0.2,0.3-0.3,0.6-0.5,0.9l0,0l0,0c-2.6,0.9-5.2,1.8-7.8,2.9c-2.9,1-5.6,2.4-8.4,3.6l-2.1,1l-1,0.5l-1,0.5l-4.1,2.1
	c-1.4,0.7-2.7,1.4-4,2.2l-3.9,2.3l-3.8,2.3l-0.7,0.4l-3,2l-3.5,2.3l-0.9,0.6l-0.8,0.6l-1.6,1.2l-3.1,2.3l-1.5,1.1l-0.7,0.6l-0.7,0.6
	l-0.5,0.4l0,0l0,0l0,0l0,0l0,0c0.5,0,0.8,0.3,1.2,0.4c0.2,0.1,0.4,0.1,0.6,0c0.3-0.1,0.6-0.2,1.1-0.5l0,0l0,0c0.4,0.3,1.2,0.3,2.2,0
	c0.6-0.2,1.3-0.4,2.1-0.7c1.1-0.4,2.3-1,3.6-1.7l1-0.5l1.1-0.5c0.8-0.4,1.5-0.8,2.4-1.2c1.6-0.8,3.4-1.8,5.2-2.8
	c1.9-0.9,3.9-1.9,5.9-3s4.3-2.1,6.5-3.2l3.4-1.6c1.1-0.6,2.4-1,3.6-1.6c3.7-1.7,7.5-3.3,11.4-4.8c0.2,0,0.3-0.1,0.5-0.1
	c1.1-0.3,2.2-0.5,3.2-0.7l1.5-0.3l1.5-0.3l3-0.5c3.8-0.6,7.6-1,11.5-1.2l1.3-0.1h1.3h2.6c1.7,0,3.3,0,4.9,0.1c3,0.2,5.8,0.5,8.3,0.8
	l0,0l0,0c-1.2,0.3-2.4,0.5-3.6,0.8c-18.1,4.3-35.4,11.3-51.4,20.8l-1.1,0.4l-4.4,1.6c-1.5,0.6-2.9,1.2-4.3,1.7
	c-1.4,0.5-2.7,1.1-3.9,1.5c-1,0.4-2,0.7-3.1,1c-0.7,0.2-1.2,0.3-1.6,0.2c-0.7,0-1-0.3-0.8-1c0.4-0.9,0.9-1.7,1.5-2.4
	c0.5-0.6,1.1-1.2,1.6-1.8c0.7-0.6,1.4-1.4,2.3-2.2l-3.3,2l-3.2,2.1c-2.1,1.4-4.1,2.8-6,4.2s-3.7,2.8-5.4,4.2l-2.5,2.1
	c-0.8,0.7-1.6,1.4-2.4,2c-5.4,4.7-10.5,9.6-15.3,14.8c-4.2,4.5-7.5,8.4-10.5,11.9s-5.4,6.6-7.8,9.3c-4.2,5-7.8,9.2-11.9,13.7
	c-0.4,0.4-0.8,0.9-1.2,1.3c-4.4,4.8-9.5,10.3-16.2,17.9l-0.9,1c-3.7,7.8-7,15.9-9.8,24.1c-0.7,2.2-1.3,4.4-1.7,6.7
	c0,0.1,0,0.1,0,0.2h63.4c0.2-0.5,0.4-1,0.6-1.5c3.7-8.7,6.3-15.8,7.5-21c3.1-5.3,6.2-10.4,9.3-15.3c1.5-2.1,3.1-4.4,4.7-6.7
	c0.4-0.6,0.9-1.2,1.3-1.8l1.4-1.8c0.9-1.3,1.8-2.5,2.8-3.7c0.8-1.1,1.7-2.1,2.5-3.2c-5.5,8.9-10.6,18.1-15.1,27.5
	c-4.5,9.1-8.8,18.3-13.2,27.4H960v-151C959.6,233.8,959.1,233.7,958.7,233.6z M840.7,255.3L840.7,255.3L840.7,255.3
	c-0.7,0.1-1.3,0.2-2,0.4c-0.8,0.1-1.7,0.3-2.5,0.5l-2.5,0.5l-2.5,0.5c-0.9,0.2-1.7,0.3-2.6,0.6c-1.7,0.4-3.4,0.8-5.1,1.2
	c-0.1,0-0.2,0-0.3,0.1c-1.6,0.3-3.1,0.8-4.6,1.2c-0.1,0-0.2,0-0.3,0.1c-1.7,0.5-3.5,0.9-5.2,1.4l-5.2,1.6c-0.1,0-0.3,0.1-0.4,0.1
	c-0.6,0.2-1.2,0.3-1.8,0.5c-0.1,0-0.3,0.1-0.4,0.1h-0.1l0,0l0,0c0.1-0.2,0.1-0.4,0.1-0.6c-4.6,2.6-8.9,2.6-15.6,4.3
	c-1.7,0.4-3.5,1-5.5,1.6c-2,0.8-4.1,1.7-6.5,2.8c-1.2,0.6-2.4,1.3-3.7,2c-1.3,0.8-2.6,1.5-4,2.4c-1,0.7-2,1.4-3,2.2c0,0,0,0,0.1,0
	c0,0,0,0-0.1,0c1.1-0.8,2-1.6,2.9-2.4c0.5-0.4,0.9-0.7,1.4-1c20.4-12.9,43.3-21.5,67.2-25.3c0.1,0,0.1,0.1,0.2,0.1
	c0.5,0.3,0.9,0.7,1.3,1c0.4,0.4,0.7,0.8,0.9,1.2v0.1c0,0.1,0,0.2,0.1,0.2c0,0.1,0.1,0.3,0.1,0.4v0.1c0,0.2,0,0.3,0,0.5
	c-0.1,0.4-0.2,0.9-0.5,1.3L840.7,255.3z"/>
<path class="st1" d="M840.9,252.7c0,0.1,0,0.2,0.1,0.2C841,252.9,841,252.8,840.9,252.7z"/>
<path class="st2" d="M840.9,252.7c0,0.1,0,0.2,0.1,0.2C841,252.9,841,252.8,840.9,252.7z"/>
<path class="st4" d="M840.9,252.7c0,0.1,0,0.2,0.1,0.2C841,252.9,841,252.8,840.9,252.7z"/>
<path class="st1" d="M789.6,267.8c-1.7,0.4-3.5,1-5.5,1.6c-2,0.8-4.1,1.7-6.5,2.8c-1.2,0.6-2.4,1.3-3.7,2c-1.3,0.8-2.6,1.5-4,2.4
	c-0.9,0.7-1.9,1.4-2.9,2.1c0,0,0,0-0.1,0c1-0.8,2-1.5,3-2.2c1.4-0.9,2.7-1.7,4-2.4s2.5-1.5,3.7-2c2.4-1.1,4.5-2.1,6.5-2.8
	C786.1,268.8,788,268.3,789.6,267.8c6.7-1.7,11-1.7,15.6-4.3l0,0C800.6,266.1,796.4,266.2,789.6,267.8z"/>
<path class="st2" d="M789.6,267.8c-1.7,0.4-3.5,1-5.5,1.6c-2,0.8-4.1,1.7-6.5,2.8c-1.2,0.6-2.4,1.3-3.7,2c-1.3,0.8-2.6,1.5-4,2.4
	c-0.9,0.7-1.9,1.4-2.9,2.1c0,0,0,0-0.1,0c1-0.8,2-1.5,3-2.2c1.4-0.9,2.7-1.7,4-2.4s2.5-1.5,3.7-2c2.4-1.1,4.5-2.1,6.5-2.8
	C786.1,268.8,788,268.3,789.6,267.8c6.7-1.7,11-1.7,15.6-4.3l0,0C800.6,266.1,796.4,266.2,789.6,267.8z"/>
<path class="st4" d="M789.6,267.8c-1.7,0.4-3.5,1-5.5,1.6c-2,0.8-4.1,1.7-6.5,2.8c-1.2,0.6-2.4,1.3-3.7,2c-1.3,0.8-2.6,1.5-4,2.4
	c-0.9,0.7-1.9,1.4-2.9,2.1c0,0,0,0-0.1,0c1-0.8,2-1.5,3-2.2c1.4-0.9,2.7-1.7,4-2.4s2.5-1.5,3.7-2c2.4-1.1,4.5-2.1,6.5-2.8
	C786.1,268.8,788,268.3,789.6,267.8c6.7-1.7,11-1.7,15.6-4.3l0,0C800.6,266.1,796.4,266.2,789.6,267.8z"/>
<path class="st1" d="M805.2,264.1L805.2,264.1L805.2,264.1c0.2-0.1,0.4-0.1,0.5-0.2C805.5,264,805.4,264,805.2,264.1L805.2,264.1z"
	/>
<path class="st2" d="M805.2,264.1L805.2,264.1L805.2,264.1c0.2-0.1,0.4-0.1,0.5-0.2C805.5,264,805.4,264,805.2,264.1L805.2,264.1z"
	/>
<path class="st4" d="M805.2,264.1L805.2,264.1L805.2,264.1c0.2-0.1,0.4-0.1,0.5-0.2C805.5,264,805.4,264,805.2,264.1L805.2,264.1z"
	/>
<path class="st1" d="M840.6,255.3L840.6,255.3c0.3-0.4,0.4-0.9,0.5-1.3C841,254.4,840.9,254.8,840.6,255.3z"/>
<path class="st2" d="M840.6,255.3L840.6,255.3c0.3-0.4,0.4-0.9,0.5-1.3C841,254.4,840.9,254.8,840.6,255.3z"/>
<path class="st4" d="M840.6,255.3L840.6,255.3c0.3-0.4,0.4-0.9,0.5-1.3C841,254.4,840.9,254.8,840.6,255.3z"/>
<path class="st1" d="M813.1,261.7l-5.2,1.6c-0.1,0-0.3,0.1-0.4,0.1c0.1,0,0.3-0.1,0.4-0.1L813.1,261.7c1.7-0.5,3.5-0.9,5.2-1.4
	c0.1,0,0.2,0,0.3-0.1c-0.1,0-0.2,0-0.3,0.1C816.6,260.8,814.8,261.2,813.1,261.7z"/>
<path class="st2" d="M813.1,261.7l-5.2,1.6c-0.1,0-0.3,0.1-0.4,0.1c0.1,0,0.3-0.1,0.4-0.1L813.1,261.7c1.7-0.5,3.5-0.9,5.2-1.4
	c0.1,0,0.2,0,0.3-0.1c-0.1,0-0.2,0-0.3,0.1C816.6,260.8,814.8,261.2,813.1,261.7z"/>
<path class="st4" d="M813.1,261.7l-5.2,1.6c-0.1,0-0.3,0.1-0.4,0.1c0.1,0,0.3-0.1,0.4-0.1L813.1,261.7c1.7-0.5,3.5-0.9,5.2-1.4
	c0.1,0,0.2,0,0.3-0.1c-0.1,0-0.2,0-0.3,0.1C816.6,260.8,814.8,261.2,813.1,261.7z"/>
<path class="st1" d="M840.9,252.6c-0.2-0.4-0.5-0.8-0.9-1.2C840.4,251.8,840.7,252.2,840.9,252.6z"/>
<path class="st2" d="M840.9,252.6c-0.2-0.4-0.5-0.8-0.9-1.2C840.4,251.8,840.7,252.2,840.9,252.6z"/>
<path class="st4" d="M840.9,252.6c-0.2-0.4-0.5-0.8-0.9-1.2C840.4,251.8,840.7,252.2,840.9,252.6z"/>
<path class="st1" d="M836.2,256.1l-2.5,0.5l-2.5,0.5c-0.9,0.2-1.7,0.3-2.6,0.6c-1.7,0.4-3.4,0.8-5.1,1.2c-0.1,0-0.2,0-0.3,0.1
	c0.1,0,0.2,0,0.3-0.1c1.7-0.4,3.4-0.8,5.1-1.2c0.8-0.2,1.7-0.4,2.6-0.6l2.5-0.5L836.2,256.1c0.8-0.2,1.7-0.4,2.5-0.5
	c0.7-0.1,1.3-0.2,2-0.4l0,0c-0.7,0.1-1.3,0.2-1.9,0.4C837.9,255.8,837,255.9,836.2,256.1z"/>
<path class="st2" d="M836.2,256.1l-2.5,0.5l-2.5,0.5c-0.9,0.2-1.7,0.3-2.6,0.6c-1.7,0.4-3.4,0.8-5.1,1.2c-0.1,0-0.2,0-0.3,0.1
	c0.1,0,0.2,0,0.3-0.1c1.7-0.4,3.4-0.8,5.1-1.2c0.8-0.2,1.7-0.4,2.6-0.6l2.5-0.5L836.2,256.1c0.8-0.2,1.7-0.4,2.5-0.5
	c0.7-0.1,1.3-0.2,2-0.4l0,0c-0.7,0.1-1.3,0.2-1.9,0.4C837.9,255.8,837,255.9,836.2,256.1z"/>
<path class="st4" d="M836.2,256.1l-2.5,0.5l-2.5,0.5c-0.9,0.2-1.7,0.3-2.6,0.6c-1.7,0.4-3.4,0.8-5.1,1.2c-0.1,0-0.2,0-0.3,0.1
	c0.1,0,0.2,0,0.3-0.1c1.7-0.4,3.4-0.8,5.1-1.2c0.8-0.2,1.7-0.4,2.6-0.6l2.5-0.5L836.2,256.1c0.8-0.2,1.7-0.4,2.5-0.5
	c0.7-0.1,1.3-0.2,2-0.4l0,0c-0.7,0.1-1.3,0.2-1.9,0.4C837.9,255.8,837,255.9,836.2,256.1z"/>
<path class="st1" d="M841.1,253.3L841.1,253.3C841.1,253.4,841.1,253.4,841.1,253.3z"/>
<path class="st2" d="M841.1,253.3L841.1,253.3C841.1,253.4,841.1,253.4,841.1,253.3z"/>
<path class="st4" d="M841.1,253.3L841.1,253.3C841.1,253.4,841.1,253.4,841.1,253.3z"/>
<path class="st1" d="M770.9,268.6l-4.4,1.5c-1.5,0.6-2.9,1.2-4.3,1.7c-1.4,0.5-2.7,1.1-3.9,1.5c-1,0.4-2,0.7-3.1,1
	c-0.6,0.2-1.2,0.2-1.6,0.2c0.4,0,0.9-0.1,1.6-0.2c1-0.3,2.1-0.6,3.1-1c1.2-0.4,2.5-0.9,3.9-1.5c1.4-0.5,2.8-1.2,4.3-1.7L770.9,268.6
	l1.1-0.4c16-9.5,33.3-16.5,51.4-20.8c-18.1,4.3-35.5,11.3-51.5,20.8L770.9,268.6z"/>
<path class="st2" d="M770.9,268.6l-4.4,1.5c-1.5,0.6-2.9,1.2-4.3,1.7c-1.4,0.5-2.7,1.1-3.9,1.5c-1,0.4-2,0.7-3.1,1
	c-0.6,0.2-1.2,0.2-1.6,0.2c0.4,0,0.9-0.1,1.6-0.2c1-0.3,2.1-0.6,3.1-1c1.2-0.4,2.5-0.9,3.9-1.5c1.4-0.5,2.8-1.2,4.3-1.7L770.9,268.6
	l1.1-0.4c16-9.5,33.3-16.5,51.4-20.8c-18.1,4.3-35.5,11.3-51.5,20.8L770.9,268.6z"/>
<path class="st4" d="M770.9,268.6l-4.4,1.5c-1.5,0.6-2.9,1.2-4.3,1.7c-1.4,0.5-2.7,1.1-3.9,1.5c-1,0.4-2,0.7-3.1,1
	c-0.6,0.2-1.2,0.2-1.6,0.2c0.4,0,0.9-0.1,1.6-0.2c1-0.3,2.1-0.6,3.1-1c1.2-0.4,2.5-0.9,3.9-1.5c1.4-0.5,2.8-1.2,4.3-1.7L770.9,268.6
	l1.1-0.4c16-9.5,33.3-16.5,51.4-20.8c-18.1,4.3-35.5,11.3-51.5,20.8L770.9,268.6z"/>
<path class="st1" d="M906.2,223.4c2.4,0.7,5.2,1.6,7.4,2.4h0.1C911.5,225.1,908.7,224.2,906.2,223.4c-3-0.9-5.3-1.6-4.8-2
	C900.9,221.8,903.2,222.6,906.2,223.4z"/>
<path class="st2" d="M906.2,223.4c2.4,0.7,5.2,1.6,7.4,2.4h0.1C911.5,225.1,908.7,224.2,906.2,223.4c-3-0.9-5.3-1.6-4.8-2
	C900.9,221.8,903.2,222.6,906.2,223.4z"/>
<path class="st4" d="M906.2,223.4c2.4,0.7,5.2,1.6,7.4,2.4h0.1C911.5,225.1,908.7,224.2,906.2,223.4c-3-0.9-5.3-1.6-4.8-2
	C900.9,221.8,903.2,222.6,906.2,223.4z"/>
<path class="st1" d="M790.7,238.6l-1.1,1.8c-0.2,0.3-0.3,0.6-0.5,0.9l0,0c0.2-0.3,0.3-0.6,0.5-0.9L790.7,238.6l2.2-3.6l0,0
	L790.7,238.6z"/>
<path class="st2" d="M790.7,238.6l-1.1,1.8c-0.2,0.3-0.3,0.6-0.5,0.9l0,0c0.2-0.3,0.3-0.6,0.5-0.9L790.7,238.6l2.2-3.6l0,0
	L790.7,238.6z"/>
<path class="st4" d="M790.7,238.6l-1.1,1.8c-0.2,0.3-0.3,0.6-0.5,0.9l0,0c0.2-0.3,0.3-0.6,0.5-0.9L790.7,238.6l2.2-3.6l0,0
	L790.7,238.6z"/>
<path class="st1" d="M831.6,226.9c0.5,0.1,1.1,0.2,1.9,0.2l0,0C832.8,227,832.1,226.9,831.6,226.9c-1.8-0.3-2.2-1.1-1-2.1
	c0.1-0.1,0.3-0.3,0.5-0.4c-0.2,0.1-0.4,0.3-0.5,0.4C829.4,225.8,829.8,226.5,831.6,226.9z"/>
<path class="st2" d="M831.6,226.9c0.5,0.1,1.1,0.2,1.9,0.2l0,0C832.8,227,832.1,226.9,831.6,226.9c-1.8-0.3-2.2-1.1-1-2.1
	c0.1-0.1,0.3-0.3,0.5-0.4c-0.2,0.1-0.4,0.3-0.5,0.4C829.4,225.8,829.8,226.5,831.6,226.9z"/>
<path class="st4" d="M831.6,226.9c0.5,0.1,1.1,0.2,1.9,0.2l0,0C832.8,227,832.1,226.9,831.6,226.9c-1.8-0.3-2.2-1.1-1-2.1
	c0.1-0.1,0.3-0.3,0.5-0.4c-0.2,0.1-0.4,0.3-0.5,0.4C829.4,225.8,829.8,226.5,831.6,226.9z"/>
<polygon class="st1" points="745.6,263.4 744.8,264 744,264.6 742.3,265.8 739.2,268.1 737.7,269.3 736.9,269.8 736.2,270.4 
	735.8,270.8 735.8,270.8 735.8,270.8 736.3,270.4 737,269.8 737.7,269.3 739.2,268.1 742.4,265.8 744,264.6 744.8,264 745.7,263.4 
	749.2,261.1 752.1,259.1 749.2,261.1 "/>
<polygon class="st2" points="745.6,263.4 744.8,264 744,264.6 742.3,265.8 739.2,268.1 737.7,269.3 736.9,269.8 736.2,270.4 
	735.8,270.8 735.8,270.8 735.8,270.8 736.3,270.4 737,269.8 737.7,269.3 739.2,268.1 742.4,265.8 744,264.6 744.8,264 745.7,263.4 
	749.2,261.1 752.1,259.1 749.2,261.1 "/>
<polygon class="st4" points="745.6,263.4 744.8,264 744,264.6 742.3,265.8 739.2,268.1 737.7,269.3 736.9,269.8 736.2,270.4 
	735.8,270.8 735.8,270.8 735.8,270.8 736.3,270.4 737,269.8 737.7,269.3 739.2,268.1 742.4,265.8 744,264.6 744.8,264 745.7,263.4 
	749.2,261.1 752.1,259.1 749.2,261.1 "/>
<path class="st1" d="M661.8,377.8c2.8-8.2,6.1-16.2,9.8-24.1l0.9-1c6.7-7.5,11.8-13,16.2-17.9c0.4-0.5,0.8-0.9,1.2-1.3
	c4.1-4.5,7.7-8.6,11.9-13.7c2.3-2.8,4.8-5.9,7.8-9.3c3-3.5,6.3-7.4,10.5-11.9c4.8-5.2,10-10.1,15.3-14.8c0.8-0.7,1.6-1.4,2.4-2
	l2.5-2.1c1.7-1.4,3.5-2.8,5.4-4.2s3.9-2.8,6-4.2l3.2-2.1l3.3-2c0,0,0,0,0.1,0l-3.4,2l-3.2,2.1c-2.1,1.4-4.1,2.8-6,4.2
	s-3.7,2.8-5.4,4.2l-2.5,2.1c-0.8,0.7-1.6,1.4-2.4,2c-5.4,4.7-10.5,9.6-15.3,14.8c-4.2,4.5-7.5,8.4-10.5,11.9
	c-2.9,3.5-5.4,6.6-7.8,9.3c-4.2,5-7.8,9.2-11.9,13.7c-0.4,0.4-0.8,0.9-1.2,1.3c-4.4,4.8-9.5,10.3-16.2,17.9l-0.9,1
	C667.8,361.6,664.6,369.6,661.8,377.8c-0.7,2.2-1.3,4.4-1.7,6.7c0,0.1,0,0.1,0,0.2l0,0c0-0.1,0-0.1,0-0.2
	C660.5,382.2,661,380,661.8,377.8z"/>
<path class="st2" d="M661.8,377.8c2.8-8.2,6.1-16.2,9.8-24.1l0.9-1c6.7-7.5,11.8-13,16.2-17.9c0.4-0.5,0.8-0.9,1.2-1.3
	c4.1-4.5,7.7-8.6,11.9-13.7c2.3-2.8,4.8-5.9,7.8-9.3c3-3.5,6.3-7.4,10.5-11.9c4.8-5.2,10-10.1,15.3-14.8c0.8-0.7,1.6-1.4,2.4-2
	l2.5-2.1c1.7-1.4,3.5-2.8,5.4-4.2s3.9-2.8,6-4.2l3.2-2.1l3.3-2c0,0,0,0,0.1,0l-3.4,2l-3.2,2.1c-2.1,1.4-4.1,2.8-6,4.2
	s-3.7,2.8-5.4,4.2l-2.5,2.1c-0.8,0.7-1.6,1.4-2.4,2c-5.4,4.7-10.5,9.6-15.3,14.8c-4.2,4.5-7.5,8.4-10.5,11.9
	c-2.9,3.5-5.4,6.6-7.8,9.3c-4.2,5-7.8,9.2-11.9,13.7c-0.4,0.4-0.8,0.9-1.2,1.3c-4.4,4.8-9.5,10.3-16.2,17.9l-0.9,1
	C667.8,361.6,664.6,369.6,661.8,377.8c-0.7,2.2-1.3,4.4-1.7,6.7c0,0.1,0,0.1,0,0.2l0,0c0-0.1,0-0.1,0-0.2
	C660.5,382.2,661,380,661.8,377.8z"/>
<path class="st4" d="M661.8,377.8c2.8-8.2,6.1-16.2,9.8-24.1l0.9-1c6.7-7.5,11.8-13,16.2-17.9c0.4-0.5,0.8-0.9,1.2-1.3
	c4.1-4.5,7.7-8.6,11.9-13.7c2.3-2.8,4.8-5.9,7.8-9.3c3-3.5,6.3-7.4,10.5-11.9c4.8-5.2,10-10.1,15.3-14.8c0.8-0.7,1.6-1.4,2.4-2
	l2.5-2.1c1.7-1.4,3.5-2.8,5.4-4.2s3.9-2.8,6-4.2l3.2-2.1l3.3-2c0,0,0,0,0.1,0l-3.4,2l-3.2,2.1c-2.1,1.4-4.1,2.8-6,4.2
	s-3.7,2.8-5.4,4.2l-2.5,2.1c-0.8,0.7-1.6,1.4-2.4,2c-5.4,4.7-10.5,9.6-15.3,14.8c-4.2,4.5-7.5,8.4-10.5,11.9
	c-2.9,3.5-5.4,6.6-7.8,9.3c-4.2,5-7.8,9.2-11.9,13.7c-0.4,0.4-0.8,0.9-1.2,1.3c-4.4,4.8-9.5,10.3-16.2,17.9l-0.9,1
	C667.8,361.6,664.6,369.6,661.8,377.8c-0.7,2.2-1.3,4.4-1.7,6.7c0,0.1,0,0.1,0,0.2l0,0c0-0.1,0-0.1,0-0.2
	C660.5,382.2,661,380,661.8,377.8z"/>
<path class="st1" d="M792.5,247.9l1.5-0.3l3-0.5c3.8-0.6,7.6-1,11.5-1.2l1.3-0.1h1.3h2.6c1.7,0,3.3,0,4.9,0.1c3,0.2,5.8,0.5,8.3,0.8
	l0,0c-2.5-0.4-5.3-0.6-8.3-0.8c-1.6-0.1-3.2-0.1-4.9-0.1h-2.6h-1.3l-1.3,0.1c-3.8,0.2-7.7,0.6-11.5,1.2l-3,0.5L792.5,247.9l-1.5,0.3
	c-1.1,0.2-2.1,0.5-3.2,0.7c1.1-0.3,2.1-0.5,3.2-0.7L792.5,247.9z"/>
<path class="st2" d="M792.5,247.9l1.5-0.3l3-0.5c3.8-0.6,7.6-1,11.5-1.2l1.3-0.1h1.3h2.6c1.7,0,3.3,0,4.9,0.1c3,0.2,5.8,0.5,8.3,0.8
	l0,0c-2.5-0.4-5.3-0.6-8.3-0.8c-1.6-0.1-3.2-0.1-4.9-0.1h-2.6h-1.3l-1.3,0.1c-3.8,0.2-7.7,0.6-11.5,1.2l-3,0.5L792.5,247.9l-1.5,0.3
	c-1.1,0.2-2.1,0.5-3.2,0.7c1.1-0.3,2.1-0.5,3.2-0.7L792.5,247.9z"/>
<path class="st4" d="M792.5,247.9l1.5-0.3l3-0.5c3.8-0.6,7.6-1,11.5-1.2l1.3-0.1h1.3h2.6c1.7,0,3.3,0,4.9,0.1c3,0.2,5.8,0.5,8.3,0.8
	l0,0c-2.5-0.4-5.3-0.6-8.3-0.8c-1.6-0.1-3.2-0.1-4.9-0.1h-2.6h-1.3l-1.3,0.1c-3.8,0.2-7.7,0.6-11.5,1.2l-3,0.5L792.5,247.9l-1.5,0.3
	c-1.1,0.2-2.1,0.5-3.2,0.7c1.1-0.3,2.1-0.5,3.2-0.7L792.5,247.9z"/>
<path class="st1" d="M737.6,271.2c-0.3,0.1-0.5,0-0.6,0c-0.4-0.1-0.6-0.4-1.2-0.4l0,0c0.5,0,0.8,0.3,1.1,0.4
	C737.1,271.3,737.3,271.3,737.6,271.2z"/>
<path class="st2" d="M737.6,271.2c-0.3,0.1-0.5,0-0.6,0c-0.4-0.1-0.6-0.4-1.2-0.4l0,0c0.5,0,0.8,0.3,1.1,0.4
	C737.1,271.3,737.3,271.3,737.6,271.2z"/>
<path class="st4" d="M737.6,271.2c-0.3,0.1-0.5,0-0.6,0c-0.4-0.1-0.6-0.4-1.2-0.4l0,0c0.5,0,0.8,0.3,1.1,0.4
	C737.1,271.3,737.3,271.3,737.6,271.2z"/>
<path class="st1" d="M740.9,270.7c-1,0.3-1.8,0.3-2.2,0l0,0C739.2,271,739.9,271,740.9,270.7z"/>
<path class="st2" d="M740.9,270.7c-1,0.3-1.8,0.3-2.2,0l0,0C739.2,271,739.9,271,740.9,270.7z"/>
<path class="st4" d="M740.9,270.7c-1,0.3-1.8,0.3-2.2,0l0,0C739.2,271,739.9,271,740.9,270.7z"/>
<path class="st5" d="M837.1,142.6L837.1,142.6l0.5-1.8l0,0C836,142.2,835.5,143,837.1,142.6z"/>
</svg>
